<?xml version="1.0" encoding="utf-8"?>
<!-- Generator: Adobe Illustrator 19.0.1, SVG Export Plug-In . SVG Version: 6.00 Build 0)  -->
<svg version="1.1" id="Layer_1" xmlns="http://www.w3.org/2000/svg" xmlns:xlink="http://www.w3.org/1999/xlink" x="0px" y="0px"
	 viewBox="0 0 357.6 33.9" style="enable-background:new 0 0 357.6 33.9;" xml:space="preserve">
<style type="text/css">
	.st0{fill:#FFFFFF;}
</style>
<g>
	<path class="st0" d="M5.9,23.8c-0.4-0.3-0.8-0.5-1.2-0.8s-0.9-0.5-1.3-0.7c-0.1,0.3-0.3,0.5-0.5,0.6c-0.2,0.1-0.6,0.2-1.1,0.2
		c-0.5,0-0.8,0-0.8-0.1c-0.1-0.1,0-0.3,0.1-0.6c0.6-1.5,1.1-3.4,1.6-5.6c0.5-2.2,1-4.6,1.4-7.1C3.2,9.8,2.4,10,1.7,10.4L0.3,8.7
		c0.6,0,1.2,0,1.8,0.1c0.5,0,1,0,1.4,0h0.7C4.4,7.4,4.7,6,4.9,4.4c0.2-1.6,0.4-3,0.5-4.4l3,1.5c0.5,0.2,0.5,0.5,0,0.9L7.5,3
		C7.5,3.4,7.4,3.8,7.3,4.3C7.2,4.8,7.1,5.3,7,5.8c-0.1,0.5-0.2,1-0.3,1.5c-0.1,0.5-0.2,1-0.3,1.5l2.3,0l1-1.5L12,8.8
		c0.2,0.2,0.4,0.4,0.4,0.5s-0.1,0.3-0.4,0.4l-0.7,0.4c-0.2,2.8-0.6,5.3-1,7.4c-0.4,2.1-1,4-1.8,5.8c2.1,1.1,3.3,2.1,3.6,2.8
		c0.2,0.4,0.3,0.8,0.3,1.2c0,0.4-0.1,0.7-0.2,1c-0.1,0.3-0.3,0.5-0.4,0.7c-0.2,0.2-0.4,0.3-0.6,0.3s-0.4-0.1-0.5-0.2
		c-0.2-0.1-0.4-0.4-0.6-0.8c-0.3-0.6-0.7-1.1-1.1-1.6c-0.4-0.5-0.9-1-1.3-1.4c-0.8,1.5-1.8,2.9-3,4.2c-1.1,1.3-2.5,2.5-4,3.7L0,32.5
		c1.2-1.4,2.4-2.7,3.3-4.1C4.3,27,5.2,25.5,5.9,23.8z M6.3,9.7c-0.2,1-0.4,2-0.6,3c-0.2,1-0.4,2-0.6,3c-0.2,1-0.4,1.9-0.6,2.8
		S4,20.3,3.7,21.1c1,0.4,1.9,0.8,2.8,1.2c0.7-1.7,1.2-3.6,1.6-5.7c0.4-2.1,0.7-4.4,0.8-6.9H6.3z M13.7,9.6c0-0.5,0-1.1,0-1.8
		c0-0.7-0.1-1.4-0.1-2l3.1,1.5C17,7.6,17,7.8,16.7,8.1l-0.8,0.5v6h10.9l1.2-1.4l2.2,1.7c0.5,0.3,0.5,0.6,0,0.9l-0.8,0.5v4.9H30
		l1.8-2.2l2.2,2.4c0.3,0.3,0.4,0.5,0.4,0.6s-0.3,0.1-0.6,0.1H22.5c1.2,2.2,2.6,3.9,4.4,5.3c1.8,1.4,4,2.3,6.8,2.9v0.5
		c-1.4,0.2-2.3,0.8-2.6,1.8c-0.1,0.3-0.4,0.4-0.8,0.1c-1.2-0.7-2.2-1.3-3-2c-0.9-0.7-1.6-1.4-2.3-2.2c-0.7-0.8-1.2-1.7-1.7-2.7
		c-0.5-1-1-2.1-1.4-3.4c-0.4,1.6-0.9,3-1.6,4.2c-0.6,1.2-1.5,2.2-2.4,3.1s-2.2,1.7-3.5,2.3c-1.4,0.6-2.9,1.2-4.7,1.7l-0.2-0.7
		c1.6-0.7,2.9-1.4,4.1-2.1c1.1-0.7,2.1-1.5,2.8-2.3c0.8-0.8,1.4-1.8,1.9-2.8c0.5-1,0.9-2.3,1.3-3.7h-5c-0.6,0-1,0-1.4,0.1
		c-0.3,0.1-0.7,0.2-1.1,0.3L10.8,21c0.6,0.1,1.1,0.2,1.5,0.2c0.5,0,0.9,0,1.5,0h5.9c0.2-0.8,0.3-1.6,0.4-2.5c0.1-0.9,0.1-1.9,0.2-3
		h-4.3c0,0.4-0.1,0.8-0.3,1c-0.2,0.2-0.5,0.4-1.2,0.6c-0.5,0.1-0.8,0.2-0.9,0.1c-0.1-0.1-0.1-0.4-0.1-1c0-0.5,0.1-1,0.1-1.7
		c0-0.7,0.1-1.3,0.1-1.9V9.6z M18.2,4.6c0-1,0-2.1-0.1-3.3l2.4,1.5h6l1.3-1.5l2.2,1.6c0.3,0.2,0.4,0.3,0.4,0.5S30.2,3.6,30,3.7
		l-0.7,0.4v2.2c0,0.6,0,1.3,0.1,1.9c0,0.6,0.1,1.2,0.1,1.8c0,0.3,0,0.5-0.2,0.7c-0.2,0.2-0.6,0.5-1.3,0.9C27.5,12,27.2,12.1,27,12
		c-0.1-0.1-0.2-0.2-0.2-0.5v-1.2h-6.3V11c0,0.3-0.1,0.6-0.3,0.8c-0.2,0.2-0.6,0.4-1.2,0.7c-0.4,0.2-0.6,0.2-0.8,0.1
		c-0.2-0.1-0.2-0.5-0.2-1c0-0.6,0.1-1.2,0.1-1.8c0-0.6,0-1.3,0-2.1V4.6z M20.5,3.8v5.5h6.3V3.8H20.5z M22.6,15.7
		c-0.1,1.1-0.2,2.1-0.3,3.1c-0.1,1-0.2,1.8-0.3,2.4h5v-5.5H22.6z"/>
	<path class="st0" d="M69.7,29.6c-0.8,0.2-1.4,0.5-1.7,0.9s-0.6,0.8-0.7,1.1c0,0.2-0.1,0.3-0.3,0.4c-0.1,0-0.4,0-0.8,0
		c-1.2-0.3-2.4-0.7-3.6-1.3c-1.2-0.6-2.2-1.3-3.2-2.1c-1-0.8-1.8-1.7-2.6-2.6C56.1,25,55.5,24,55.2,23h-0.8v5c0,1.1,0,1.9,0,2.4
		s0,1,0.1,1.5c0,0.1,0,0.3,0,0.4s-0.1,0.2-0.2,0.4c-0.1,0.1-0.3,0.3-0.5,0.4s-0.5,0.3-1,0.5c-0.4,0.2-0.7,0.2-0.8,0.1
		c-0.1-0.1-0.2-0.5-0.1-1.2c0-0.7,0.1-1.5,0.1-2.6c0-1.1,0.1-2.1,0.1-3V23h-0.5c-1.8,2.3-3.9,4.2-6.3,5.8c-2.4,1.6-5.1,2.9-8.1,3.9
		l-0.2-0.4c2.4-1.2,4.6-2.6,6.6-4.2c2.1-1.6,3.8-3.3,5.2-5.1h-8.4c-0.6,0-1,0-1.3,0.1c-0.3,0.1-0.7,0.2-1.1,0.3l-1.2-1.6
		c0.6,0.1,1,0.2,1.5,0.2c0.4,0,0.9,0,1.4,0h12.5v-0.3c0-0.9,0-2-0.1-3.3l3,1.2c0.6,0.2,0.6,0.4,0.1,0.8L54.4,21v1.1h10.9l1.9-2.3
		l2.1,2.6c0.2,0.3,0.3,0.5,0.3,0.6c0,0.1-0.2,0.1-0.5,0.1H55.9c1.5,1.9,3.4,3.3,5.7,4.4c2.3,1,5,1.5,8.1,1.5V29.6z M38.5,17.5
		c0.2,0,0.4,0,0.6,0.1c0.2,0,0.4,0,0.6,0c0.9-1.1,1.6-2.2,2.4-3.3c0.7-1.1,1.3-2.1,1.7-3c-0.9,0.2-1.7,0.4-2.2,0.6
		c-0.6,0.2-1.1,0.4-1.6,0.6c-0.3,0.1-0.4,0.2-0.5,0.1c-0.1,0-0.2-0.1-0.2-0.3l-1.2-1.9c0.2,0,0.4,0,0.6,0.1c0.2,0,0.4,0,0.5,0
		c0.4-0.7,0.8-1.5,1.2-2.3c0.4-0.8,0.8-1.7,1.2-2.5c0.4-0.9,0.7-1.7,1-2.4c0.3-0.8,0.5-1.4,0.6-2l2.3,1.4c0.6,0.3,0.6,0.6,0,0.8
		c-0.3,0.1-0.5,0.2-0.7,0.4s-0.5,0.6-0.8,1.2c-0.4,0.8-0.9,1.7-1.4,2.6c-0.5,0.9-1.1,1.9-1.8,2.9l3.6-0.2c0.3-0.6,0.6-1.2,0.9-1.9
		c0.3-0.7,0.6-1.5,1-2.3l2.1,1.5c0.3,0.2,0.4,0.4,0.4,0.5s-0.1,0.2-0.4,0.3c-0.3,0.1-0.5,0.3-0.8,0.6c-0.3,0.3-0.5,0.6-0.7,1
		c-0.9,1.4-1.8,2.7-2.6,3.9s-1.7,2.4-2.7,3.6l4.7-0.5c-0.1-0.5-0.2-0.9-0.4-1.4c-0.2-0.4-0.4-1-0.6-1.6l0.4-0.4
		c0.6,0.6,1,1.1,1.4,1.5c0.3,0.4,0.6,0.8,0.8,1.1s0.3,0.6,0.4,0.8c0.1,0.2,0.1,0.5,0.1,0.7c0,0.5-0.1,0.9-0.4,1.3
		c-0.3,0.4-0.6,0.6-0.9,0.6c-0.4,0-0.6-0.3-0.6-0.9c0-0.2,0-0.4,0-0.5c0-0.2,0-0.3,0-0.5c-1.1,0.3-1.9,0.5-2.6,0.8
		c-0.7,0.2-1.2,0.4-1.6,0.6c-0.4,0.2-0.8,0.3-1,0.4c-0.2,0.1-0.4,0.2-0.6,0.3C40.1,20,39.9,20,39.8,20c-0.1,0-0.2-0.1-0.2-0.3
		L38.5,17.5z M57.2,7v6.3c0,0.6,0,1.3,0.1,1.9c0,0.6,0.1,1.3,0.1,1.9c0,0.1,0,0.2,0,0.3s0,0.2-0.1,0.4c-0.1,0.1-0.2,0.3-0.4,0.4
		s-0.5,0.3-0.8,0.5c-0.4,0.2-0.7,0.3-0.8,0.2c-0.1,0-0.1-0.2-0.1-0.5v-0.6h-4c0,0.3-0.1,0.5-0.3,0.6s-0.5,0.3-1.1,0.5
		c-0.4,0.1-0.7,0.2-0.8,0.1c-0.1-0.1-0.2-0.5-0.1-1.1c0-0.4,0.1-0.8,0.1-1.3c0-0.5,0.1-1,0.1-1.5c0-0.5,0-1,0.1-1.5
		c0-0.5,0-0.9,0-1.3V8.4c0-0.9,0-1.7,0-2.3c0-0.7,0-1.3-0.1-2l2.2,1.6h0.9c0.1-0.6,0.2-1.2,0.2-1.7c0.1-0.5,0.1-0.9,0.1-1.3
		s0.1-0.8,0.1-1.2c0-0.4,0-0.8,0.1-1.4L55.2,1c0.3,0.1,0.5,0.2,0.5,0.4s-0.1,0.3-0.3,0.4c-0.3,0.1-0.6,0.4-0.9,1
		c-0.3,0.5-0.7,1.5-1.3,2.9H55l0.9-1.3l1.9,1.6C58,6,58.1,6.1,58.1,6.2c0,0.1-0.1,0.2-0.3,0.4L57.2,7z M55.2,6.6h-4v4.6h4V6.6z
		 M55.2,12.2h-4v4.7h4V12.2z M69.1,17.4c0,0.5-0.2,0.9-0.5,1.3c-0.3,0.4-0.6,0.5-0.9,0.5c-0.4,0-0.6-0.3-0.7-1
		c0-0.3-0.1-0.6-0.1-0.8c0-0.3-0.1-0.5-0.1-0.7c-1.1,0.3-2,0.6-2.8,0.8c-0.8,0.2-1.4,0.4-2,0.6c-0.5,0.2-1,0.3-1.3,0.5
		c-0.3,0.1-0.5,0.3-0.7,0.4c-0.2,0.2-0.5,0.1-0.6-0.2l-1-2.2c0.2,0,0.4,0,0.6,0c0.2,0,0.4,0,0.6,0c0.3-0.5,0.7-1,1-1.5
		c0.3-0.5,0.7-1,1-1.6c0.3-0.5,0.6-1,0.9-1.4c0.3-0.4,0.5-0.8,0.7-1.2c-0.8,0.2-1.5,0.4-2.1,0.5c-0.6,0.2-1,0.3-1.4,0.5
		c-0.3,0.1-0.4,0.1-0.5,0.1c-0.1,0-0.2-0.1-0.3-0.2l-0.9-1.9c0.2,0,0.3,0,0.5,0c0.1,0,0.3,0,0.4,0c0.4-0.7,0.8-1.5,1.2-2.4
		c0.4-0.8,0.7-1.7,1.1-2.4C61.5,4.4,61.8,3.7,62,3s0.4-1.3,0.5-1.7l2.3,1.5c0.5,0.3,0.5,0.6,0,0.8c-0.1,0-0.2,0.1-0.3,0.1
		c-0.1,0-0.2,0.1-0.3,0.2C64.1,4,64,4.1,63.8,4.3c-0.1,0.2-0.3,0.4-0.5,0.7c-0.5,0.8-0.9,1.6-1.4,2.4s-1,1.6-1.6,2.6l3.4,0
		c0.4-0.7,0.8-1.4,1.1-2.1c0.4-0.7,0.7-1.4,1.1-2.2l2.1,1.9c0.5,0.5,0.4,0.8,0,0.9c-0.3,0-0.6,0.2-0.9,0.4c-0.3,0.2-0.6,0.4-0.8,0.7
		c-0.9,1.3-1.7,2.5-2.5,3.5s-1.7,2.2-2.6,3.3l5.2-0.5c-0.1-0.3-0.3-0.7-0.6-1c-0.2-0.3-0.5-0.7-0.8-1.2l0.4-0.4
		c0.7,0.4,1.3,0.8,1.8,1.2c0.5,0.4,0.8,0.7,1.1,1c0.3,0.3,0.4,0.6,0.5,0.9C69,16.8,69.1,17.1,69.1,17.4z"/>
	<path class="st0" d="M85.5,13.2c1.7,0.7,3.1,1.3,4,1.8s1.7,1.1,2.2,1.7c0.6,0.6,0.9,1,1,1.3c0.1,0.3,0.2,0.7,0.2,1.2
		c0,0.3,0,0.5-0.1,0.8c-0.1,0.3-0.2,0.5-0.3,0.7c-0.1,0.2-0.3,0.4-0.5,0.6s-0.3,0.2-0.5,0.2c-0.2,0-0.3,0-0.5-0.1
		c-0.1,0-0.2-0.1-0.4-0.2c-0.1-0.1-0.3-0.3-0.4-0.5s-0.3-0.5-0.5-0.9c-0.8-1.7-2.4-3.7-5-5.8L85.5,13.2z"/>
	<path class="st0" d="M112.8,24.7l1.9,1c0.4,0.2,0.5,0.4,0.5,0.5c0,0.1-0.2,0.2-0.5,0.3c-0.3,0-0.7,0.4-1.2,1.2
		c-1.5,2.3-3.2,4.2-5,5.7l-0.3-0.3C109.7,30.8,111.2,28,112.8,24.7z M113,3.8h3.6l1-1.4l2.1,1.6c0.2,0.1,0.3,0.2,0.3,0.4
		c0,0.1-0.1,0.3-0.3,0.4l-0.6,0.5v13.5c0,0.9,0,1.8,0.1,2.5l0.1,1.6c0,0.5-0.3,0.8-1,1.2c-0.6,0.3-1,0.5-1.2,0.5
		c-0.2,0-0.3-0.2-0.3-0.5v-0.7h-4.1c0,0.3-0.1,0.6-0.2,0.8c-0.1,0.2-0.5,0.4-1,0.6s-0.9,0.4-1.1,0.4s-0.3-0.1-0.3-0.4s0-0.6,0-0.8
		c0.2-2,0.3-3.8,0.3-5.6V6.7c0-1.6,0-3-0.1-4.4L113,3.8z M116.9,10V4.8h-4.1V10H116.9z M116.9,16v-5h-4.1v5H116.9z M116.9,22.2v-5.1
		h-4.1v5.1H116.9z M115.5,24.6c1.6,0.5,2.6,0.9,3,1.2c0.4,0.3,0.6,0.7,0.6,1.1s-0.1,0.8-0.3,1.1c-0.2,0.3-0.4,0.5-0.7,0.5
		c-0.2,0-0.5-0.3-0.8-1c-0.3-0.7-1-1.5-2-2.4L115.5,24.6z M135,21.2h-2.2c1.9,4.2,4.8,6.7,8.5,7.6v0.5c-0.8,0.1-1.3,0.3-1.7,0.6
		c-0.4,0.2-0.6,0.5-0.7,0.9c-0.1,0.3-0.3,0.5-0.4,0.5c-0.5,0-1.4-0.8-2.8-2.4s-2.5-4-3.4-7.1v3.7c0,2.2,0,3.9,0.1,5s0.1,1.8,0.1,1.8
		c0,0.4-0.3,0.8-1,1c-0.6,0.3-1.1,0.4-1.2,0.4c-0.2,0-0.3-0.2-0.3-0.7l0.2-3.7c0.1-1.7,0.1-3.2,0.1-4.8v-3.5h-3.2v4.7
		c0,2.1,0,3.7,0.1,4.8c0,1.1,0.1,1.7,0.1,1.7c0,0.4-0.3,0.7-1,1c-0.6,0.3-1.1,0.4-1.2,0.4c-0.2,0-0.3-0.2-0.3-0.6l0.2-3.5
		c0.1-1.5,0.1-3.4,0.1-5.7c-1.8,2.9-4.7,5.8-8.7,8.7l-0.4-0.5c3.8-3.6,6.6-7.3,8.3-11.1c-1,0-1.9,0.1-2.6,0.4L120,20
		c0.9,0.1,1.9,0.2,3,0.2h1.8V16H123c-1,0-1.8,0.1-2.4,0.4l-1.3-1.5c0.9,0.1,1.9,0.2,3,0.2h2.5v-3.6c-1.2,0-2.1,0.1-2.9,0.4l-1.3-1.6
		c0.8,0.1,2.2,0.2,4.2,0.2V7.1h-1.4c-1,0-1.8,0.1-2.4,0.4L119.6,6c0.9,0.1,1.9,0.2,3,0.2h7.5c1.2-2.2,2.1-4.2,2.7-6.1l2.3,1.3
		c0.4,0.2,0.5,0.4,0.5,0.6c0,0.2-0.2,0.3-0.6,0.4c-0.6,0.1-1.8,1.4-3.7,3.7h4.3l1.9-2.3l2.1,2.6c0.1,0.2,0.2,0.4,0.2,0.5
		s-0.2,0.2-0.5,0.2h-7.3v3.2h2.3l1.1-1.6l2.1,1.5c0.3,0.2,0.5,0.4,0.5,0.5s-0.1,0.3-0.3,0.4l-0.6,0.5V15h0.4l1.6-1.8l1.8,2.1
		c0.2,0.2,0.3,0.4,0.3,0.5s-0.2,0.2-0.5,0.2h-3.5c0,1.1,0,2,0.1,2.8l0.1,2.1c0,0.4-0.4,0.8-1.1,1s-1.1,0.4-1.2,0.4
		c-0.2,0-0.3-0.2-0.3-0.5V21.2z M122.9,0.4c3.1,1,4.6,2.2,4.6,3.6c0,0.4-0.2,0.8-0.5,1.2c-0.4,0.4-0.7,0.5-1.1,0.5
		c-0.3,0-0.6-0.3-0.7-0.8c-0.5-1.5-1.3-2.9-2.6-4.1L122.9,0.4z M126.9,10.4h3.2V7.1h-3.2V10.4z M130.1,11.4h-3.2V15h3.2V11.4z
		 M126.9,20.2h3.2V16h-3.2V20.2z M135,15v-3.6h-2.8V15H135z M132.2,20.2h2.8V16h-2.8V20.2z"/>
	<path class="st0" d="M150.2,11.7h-2.7c-0.9,1.1-2.1,2.4-3.5,3.9l-0.4-0.4c3.1-3.8,5.6-8.7,7.5-14.6l3,1.6c0.3,0.1,0.4,0.3,0.4,0.6
		s-0.2,0.4-0.6,0.5c-0.4,0-0.8,0.2-1.1,0.4c1.7,0.4,2.9,0.8,3.7,1.3c0.8,0.5,1.2,1.1,1.2,1.9c0,0.4-0.1,0.8-0.3,1.1
		s-0.5,0.4-0.8,0.4s-0.6-0.3-1-0.8c-0.5-0.9-1.6-2-3.3-3.2c-1.2,2.4-2.6,4.6-4.1,6.5h5l1.7-1.9l1.9,2.3c0.1,0.2,0.2,0.4,0.2,0.5
		c0,0.1-0.1,0.1-0.4,0.1h-4.1v4.7h1.2l1.7-2l2,2.4c0.1,0.2,0.2,0.3,0.2,0.4s-0.2,0.2-0.5,0.2h-4.6v6.2c1.3-2,2.2-3.8,2.8-5.3
		l2.2,1.5c0.2,0.1,0.3,0.2,0.3,0.4s-0.2,0.3-0.6,0.3c-0.4,0.1-0.9,0.5-1.6,1.2c-0.7,0.8-1.7,1.8-3.1,3v2.8l5.5-1.2l0.1,0.7l-7.5,2.8
		c-1.1,0.4-1.9,0.8-2.3,1c-0.5,0.2-0.9,0.5-1.3,0.8s-0.6,0.5-0.8,0.5s-0.4-0.1-0.6-0.4l-1.6-2.1l6.1-1.3V17.4h-1.8
		c-1,0-1.8,0.1-2.4,0.4l-1.3-1.6c0.9,0.1,1.9,0.2,3,0.2h2.6V11.7z M145.5,19.1c1.1,0.7,2,1.4,2.5,2.2c0.6,0.8,0.8,1.5,0.8,2.2
		c0,0.3-0.1,0.7-0.3,1.2c-0.2,0.5-0.6,0.7-1.1,0.7s-0.8-0.4-0.8-1.3c0-1.6-0.5-3.1-1.6-4.6L145.5,19.1z M161.5,22.9l-1.6,0.3
		c-0.9,0.1-1.7,0.4-2.3,0.7l-1.3-1.6c0.3,0,0.7,0,1.2,0c0.5,0,1.1,0,1.7-0.1l2.1-0.3c-0.5-1.6-0.8-3.4-1-5.3l3.1,0.8
		c0.3,0.1,0.4,0.2,0.4,0.3c0,0.1-0.1,0.2-0.3,0.4l-0.6,0.6c0,0.9,0.2,1.9,0.5,2.9l8.9-1.4l1.2-2.1l2.2,1.6c0.4,0.3,0.5,0.5,0.5,0.7
		c0,0.2-0.2,0.3-0.6,0.4l-11.9,1.9c0.7,1.8,1.4,3.2,2.1,4.1c1.8-1.4,3.4-2.9,4.8-4.5l2.3,1.8c0.2,0.2,0.3,0.3,0.3,0.4
		c0,0.1,0,0.2-0.1,0.2c-0.1,0-0.2,0-0.3,0c-0.1,0-0.2,0-0.3,0c-0.6,0-1.3,0.4-2.4,1.3c-1,0.8-2,1.6-2.9,2.2c1.2,1.1,2.4,1.9,3.5,2.2
		c1.1,0.4,1.9,0.5,2.4,0.5s0.8-0.3,0.9-0.8l0.5-3.7l0.5-0.1c0.1,1.4,0.2,2.6,0.4,3.6c0.2,1,0.5,1.7,0.9,2.1s0.6,0.8,0.6,1
		c0,0.4-0.6,0.6-1.7,0.6c-1.1,0-2.7-0.3-4.6-0.9s-3.8-1.7-5.3-3.3c-2.9,2-6.8,3.3-11.5,4.1l-0.2-0.5c3.8-1.2,7.3-2.8,10.5-5
		C163,26.3,162.2,24.7,161.5,22.9z M167.9,13c0.8,0.6,1.6,1.1,2.5,1.5c0.9,0.4,1.6,0.5,2,0.5s0.7-0.2,0.8-0.7L174,11l0.5,0.1
		c-0.1,2.6,0.2,4.3,1,5c0.3,0.3,0.4,0.5,0.4,0.7c0,0.5-0.5,0.7-1.5,0.7s-2.3-0.2-3.9-0.7c-1.6-0.5-3.2-1.4-4.7-2.7
		c-2.6,1.2-5.1,2.1-7.4,2.7l-0.3-0.6c2.6-1,4.8-2.1,6.6-3.1c-0.9-1.1-1.7-2.5-2.3-4.2L160.8,9c-0.9,0.1-1.7,0.3-2.3,0.6l-1.3-1.5
		c0.4,0,0.9,0,1.4,0c0.6,0,1,0,1.5-0.1l2.1-0.3c-0.6-1.8-1.2-4.2-1.7-7.2l3,0.9c0.4,0.1,0.6,0.2,0.6,0.3c0,0.1-0.1,0.2-0.3,0.4
		l-0.5,0.4c0.3,2.1,0.6,3.7,1,5l7.7-1.1l1.2-2.2l2.5,1.8c0.4,0.2,0.5,0.5,0.5,0.6c0,0.2-0.1,0.3-0.3,0.3l-11.3,1.5
		c0.5,1.3,1.2,2.4,2.1,3.3c1.7-1.1,3-2.2,4-3.5l1.7,1.6c0.3,0.3,0.4,0.5,0.4,0.6c0,0.1-0.2,0.2-0.7,0.3c-0.5,0.1-1.2,0.4-2.1,1
		S168.3,12.8,167.9,13z M165.1,16.7c2.6,0,3.9,0.7,3.9,1.9c0,0.3-0.1,0.6-0.2,0.8c-0.1,0.3-0.3,0.4-0.5,0.4c-0.4,0-0.7-0.2-0.8-0.5
		c-0.2-0.3-0.5-0.7-1.1-1.2c-0.6-0.5-1.1-0.9-1.6-1.2L165.1,16.7z M165.9,1.7c3.1,0.3,4.6,1.2,4.6,2.5c0,0.3-0.1,0.6-0.4,1
		c-0.3,0.3-0.5,0.5-0.8,0.5c-0.4,0-0.7-0.3-1.1-1c-0.5-1.1-1.4-1.9-2.6-2.5L165.9,1.7z"/>
	<path class="st0" d="M195,3.5c0-0.6,0.1-1.1,0.1-1.5c0-0.4,0-0.9,0-1.4L198,2c0.3,0.1,0.4,0.2,0.4,0.4c0,0.1-0.1,0.3-0.3,0.4
		l-1,0.5l-0.2,2.3h2.2l1.3-1.6l1.7,1.9c0.2,0.2,0.3,0.4,0.3,0.5c0,0.1-0.2,0.1-0.5,0.1h-5l-0.3,4.3h2.5l1-1.3l1.6,1.5
		c0.2,0.2,0.3,0.3,0.3,0.5s0,0.3-0.2,0.4l-0.8,0.6L200.2,23h6.1l0.3-5.3h-1.5c-0.6,0-1,0-1.4,0.1c-0.3,0.1-0.7,0.2-1,0.3l-1.3-1.5
		c0.6,0.1,1,0.1,1.5,0.1c0.4,0,0.9,0,1.4,0h2.4l0.4-5.1h-1.2c-0.6,0-1,0-1.4,0.1c-0.3,0.1-0.7,0.2-1,0.3l-1.3-1.6
		c0.6,0.1,1,0.1,1.5,0.1c0.4,0,0.9,0,1.4,0h2.1l0.3-5.6h-2.3c-0.6,0-1,0-1.4,0.1c-0.3,0.1-0.7,0.1-1,0.3l-1.3-1.5
		c0.6,0.1,1,0.1,1.5,0.1c0.4,0,0.9,0,1.5,0h2.8l1.2-1.7l2.2,1.9c0.4,0.3,0.4,0.6,0,0.9l-0.9,0.6L208.5,23h1.3l2-2.4l2.3,2.8
		c0.2,0.2,0.3,0.4,0.3,0.5c0,0.1-0.2,0.1-0.5,0.1h-29.6c-0.4,0-0.8,0-1.2,0.1c-0.5,0.1-0.9,0.2-1.2,0.3l-1.3-1.5
		c0.6,0.1,1,0.1,1.5,0.1c0.4,0,0.9,0,1.5,0h1.7l-0.4-15.4c0-0.9-0.1-1.7-0.1-2.4c-0.1-0.7-0.1-1.4-0.2-2.1l2.6,1.4
		c0.8-0.3,1.6-0.7,2.3-1.2c0.7-0.4,1.6-1,2.5-1.7l1.6,1.9c0.2,0.2,0.3,0.4,0.2,0.5c-0.1,0.1-0.3,0.1-0.7,0c-0.1,0-0.3,0-0.5,0
		c-0.2,0-0.5,0.1-1,0.2c-0.4,0.1-1,0.2-1.8,0.4C189,4.8,188,5,186.8,5.3l0.2,5.5h2.5l1.4-1.7l1.8,2.1c0.2,0.2,0.3,0.4,0.3,0.5
		c0,0.1-0.2,0.1-0.5,0.1h-5.4l0.2,5h2.7l1.2-1.4l1.5,1.8c0.2,0.2,0.2,0.3,0.2,0.4c0,0.1-0.2,0.2-0.5,0.2h-5l0.1,5.2h5.6l0.8-5.7
		c0-0.5,0.1-1,0.2-1.5c0.1-0.5,0.1-1.1,0.2-1.7l2.5,1.3c0.4,0.3,0.4,0.5,0,0.7l-0.7,0.4L195,23h3.1l0.8-11.2h-2.4
		c0,0.2,0,0.3-0.1,0.5c0,0.1-0.1,0.2-0.2,0.3c-0.1,0.1-0.2,0.2-0.4,0.2c-0.2,0.1-0.5,0.1-0.8,0.2c-0.4,0.1-0.7,0.1-0.8,0
		c-0.1-0.1-0.1-0.4,0-1c0.1-0.3,0.1-0.8,0.2-1.4c0.1-0.6,0.1-1.2,0.2-1.9L195,3.5z M194.7,26.2c0.4,0.3,0.6,0.5,0.5,0.7
		c-0.1,0.1-0.3,0.2-0.6,0.2c-0.6,0-1.2,0.2-1.7,0.6c-0.9,0.6-1.7,1.2-2.5,1.7c-0.8,0.5-1.7,1-2.6,1.5s-1.9,1-2.9,1.5
		c-1,0.5-2.2,1-3.5,1.5l-0.3-0.4c1.2-0.7,2.3-1.4,3.3-2c1-0.7,2-1.4,2.9-2.1c0.9-0.7,1.8-1.5,2.7-2.2c0.9-0.8,1.8-1.6,2.7-2.5
		L194.7,26.2z M210.5,32c-0.1,0.6-0.3,1-0.7,1.1c-0.3,0.1-0.7-0.1-1.2-0.6c-1.1-1.2-2.4-2.4-3.8-3.4c-1.4-1-3-2.1-5-3.1l0.2-0.4
		c1.4,0.4,2.7,0.8,3.7,1.1c1,0.3,1.8,0.6,2.6,0.9c0.7,0.3,1.3,0.5,1.8,0.8s0.9,0.5,1.3,0.8c0.5,0.3,0.8,0.7,1,1.3
		C210.5,30.9,210.6,31.5,210.5,32z"/>
	<path class="st0" d="M225.3,7.4h3.3c0.9-2.8,1.5-5.1,1.8-6.9l3.3,1.7c0.3,0.2,0.5,0.3,0.5,0.4c0,0.1-0.2,0.2-0.5,0.4
		c-0.6,0.3-2,1.8-4.2,4.5h9.9l1.7-1.8l2.5,1.7c0.2,0.1,0.3,0.2,0.3,0.4s-0.1,0.3-0.3,0.4l-0.8,0.7v19.4c0,0.9,0,1.8,0.1,2.4l0.1,1.6
		c0,0.4-0.4,0.8-1.3,1.2c-0.8,0.4-1.4,0.5-1.6,0.5c-0.2,0-0.3-0.2-0.3-0.6v-2.8h-14.7v1.9c0,0.3-0.1,0.6-0.3,0.8s-0.6,0.4-1.2,0.6
		c-0.6,0.2-1,0.3-1.2,0.3c-0.2,0-0.4-0.1-0.4-0.2c-0.1-0.1-0.1-0.5,0-0.9c0.2-2,0.3-3.8,0.3-5.5V9.8c0-1.6,0-3-0.1-4.3L225.3,7.4z
		 M239.9,14.7V8.4h-14.7v6.3H239.9z M239.9,21.8v-6.2h-14.7v6.2H239.9z M239.9,29.3v-6.6h-14.7v6.6H239.9z"/>
	<path class="st0" d="M259.7,9.3h8.4V4.7c0-1.4,0-2.7-0.1-3.9l3.5,1.5c0.4,0.2,0.6,0.3,0.6,0.5s-0.1,0.3-0.4,0.5l-0.9,0.6v5.4h8.1
		l1.5-1.7l2.7,2.1c0.3,0.2,0.4,0.4,0.4,0.6c0,0.2-0.2,0.4-0.5,0.5l-1.1,0.6v13.4c0,2.2,0.1,4,0.2,5.5l0.2,2.3c0,0.3-0.4,0.7-1.3,1.1
		s-1.4,0.6-1.5,0.6c-0.2,0-0.3-0.2-0.3-0.5v-3.2h-19.2v2.1c0,0.3-0.1,0.6-0.2,0.7c-0.2,0.2-0.5,0.4-1.2,0.7c-0.6,0.3-1,0.4-1.3,0.4
		c-0.3,0-0.5-0.2-0.5-0.5c0-0.3,0-0.6,0-0.8c0.3-2.3,0.4-5,0.4-8V12.7c0-2.1,0-3.8-0.1-5L259.7,9.3z M268.2,10.3h-8.2v9h8.2V10.3z
		 M259.9,29.6h8.2v-9.3h-8.2V29.6z M279.1,19.3v-9h-8.4v9H279.1z M279.1,29.6v-9.3h-8.4v9.3H279.1z"/>
	<path class="st0" d="M294.9,12.1c0,0.2,0,0.5-0.1,0.8c-0.1,0.3-0.2,0.5-0.4,0.8c-0.2,0.2-0.3,0.4-0.5,0.6s-0.4,0.2-0.6,0.2
		c-0.3,0-0.5-0.1-0.6-0.2c-0.2-0.1-0.3-0.4-0.4-0.8c-0.2-1.1-0.5-2-0.9-2.8c-0.4-0.8-0.9-1.4-1.5-2.1l0.3-0.4
		c1.8,0.6,3.1,1.2,3.8,1.9C294.5,10.8,294.9,11.5,294.9,12.1z M296.7,18.7c-0.6,1.5-0.9,3.2-1.1,5c-0.2,1.8-0.1,3.9,0.2,6.3
		c0.1,0.9,0.1,1.6-0.2,2c-0.2,0.4-0.6,0.6-1.1,0.6c-0.5,0-0.9,0-1.2-0.1c-0.3-0.1-0.5-0.3-0.7-0.5s-0.2-0.6-0.3-1
		c0-0.4,0.1-1,0.2-1.7c0.3-1.4,0.5-2.5,0.6-3.4c0.1-0.8,0-1.5-0.1-2c-0.2-0.5-0.4-0.9-0.8-1.1s-1-0.5-1.7-0.7l0.3-0.7
		c0.6,0,1.1,0.1,1.4,0.1c0.3,0,0.6,0,0.8-0.1c0.2-0.1,0.4-0.3,0.6-0.5c0.2-0.2,0.3-0.5,0.5-1l7.2-15.4l0.6,0.2L296.7,18.7z
		 M297.6,5.4c0,0.3-0.1,0.5-0.2,0.8c-0.1,0.3-0.2,0.5-0.4,0.7c-0.2,0.2-0.3,0.4-0.5,0.6c-0.2,0.2-0.3,0.2-0.4,0.2
		c-0.3,0-0.5,0-0.7-0.2c-0.2-0.2-0.3-0.3-0.4-0.6c-0.3-1.1-0.7-2-1.2-2.8c-0.4-0.8-1-1.5-1.6-2.2l0.2-0.4c1.9,0.5,3.2,1.1,3.9,1.7
		C297.2,3.9,297.6,4.6,297.6,5.4z M301.3,23.8c0-0.8,0-1.4,0-1.9c0-0.5,0-0.9,0-1.3c-0.8,0.6-1.5,1.1-2.3,1.5
		c-0.8,0.4-1.6,0.9-2.4,1.3l-0.4-0.4c2.4-1.6,4.4-3.2,6-4.9c1.6-1.6,3-3.4,4.2-5.3l2.2,1.3c0.3,0.2,0.4,0.3,0.4,0.5
		c0,0.1-0.2,0.2-0.5,0.2c-0.2,0-0.4,0.1-0.5,0.2c-0.2,0.1-0.4,0.3-0.8,0.6c-0.2,0.2-0.5,0.4-0.7,0.6c-0.2,0.2-0.4,0.4-0.6,0.6h11.5
		l1.1-1.7l2.2,1.9c0.6,0.4,0.6,0.8-0.1,1l-0.8,0.3c0,1.4,0,2.6,0,3.7s0,2-0.1,2.8c0,0.8-0.1,1.5-0.1,2.1c0,0.6-0.1,1.2-0.2,1.7
		c-0.1,0.6-0.2,1.2-0.4,1.7c-0.2,0.5-0.4,0.9-0.7,1.2c-0.3,0.4-0.7,0.7-1.2,1s-1.1,0.7-1.9,1c-0.6,0.3-0.8,0.1-0.8-0.5
		c0-0.4,0-0.7,0-0.9c0-0.2-0.2-0.5-0.5-0.6s-0.7-0.4-1.3-0.5c-0.6-0.2-1.4-0.4-2.4-0.6l0.1-0.6c1.5,0.2,2.6,0.3,3.5,0.4
		c0.9,0,1.5,0,2-0.2c0.5-0.2,0.8-0.4,1-0.7c0.2-0.3,0.3-0.8,0.4-1.3c0-0.4,0.1-0.8,0.1-1.4s0.1-1.2,0.1-1.9c0-0.8,0.1-1.7,0.1-2.8
		c0-1.1,0-2.4,0.1-3.9h-7.9l1.5,0.9c0.3,0.2,0.5,0.3,0.5,0.5c0,0.1-0.2,0.2-0.5,0.3c-0.4,0.1-0.9,0.5-1.4,1.2
		c-0.1,0.1-0.2,0.3-0.3,0.4c-0.1,0.1-0.2,0.2-0.3,0.4c1.2,0.1,2.1,0.3,2.9,0.5c0.8,0.2,1.4,0.4,1.9,0.6c0.5,0.2,0.8,0.4,1,0.7
		c0.2,0.3,0.3,0.5,0.4,0.8c0,0.5,0,0.8-0.2,1.1c-0.2,0.3-0.3,0.4-0.5,0.4c-0.1,0-0.3,0-0.4-0.1c-0.1-0.1-0.4-0.3-0.8-0.7
		c-0.7-0.6-1.4-1.1-2.1-1.5c-0.7-0.4-1.5-0.8-2.5-1.2c-0.4,0.6-0.8,1-1.1,1.4c-0.3,0.4-0.6,0.7-1,1c-0.3,0.3-0.6,0.6-1,0.9
		c-0.4,0.3-0.8,0.6-1.3,1l-0.4-0.4c0.6-0.7,1.1-1.3,1.6-1.8c0.4-0.6,0.9-1.1,1.2-1.7c0.4-0.6,0.8-1.2,1.2-2c0.4-0.7,0.8-1.6,1.3-2.6
		h-4.6c-0.5,0.4-0.9,0.8-1.3,1.1c-0.4,0.3-0.8,0.7-1.2,1l1.2,0.6c0.2,0.1,0.4,0.2,0.4,0.3c0,0.1-0.1,0.3-0.3,0.6l-0.2,0.4v5.7h8.6
		l1.6-1.9l1.7,2.1c0.2,0.2,0.3,0.4,0.2,0.6c-0.1,0.1-0.3,0.2-0.6,0.2h-11.5c0,0.4,0,0.6-0.1,0.8s-0.4,0.4-1,0.6
		c-0.5,0.2-0.8,0.2-1,0.1c-0.2-0.1-0.2-0.5-0.2-1.1c0-0.3,0-0.6,0.1-0.8c0-0.2,0-0.5,0-0.7c0-0.2,0-0.5,0-0.7s0-0.5,0-0.9V23.8z
		 M318.5,2.8c0.2,0.1,0.4,0.3,0.3,0.4s-0.2,0.3-0.4,0.5l-0.7,0.5v4.6c0,0.6,0,1.2,0.1,1.9c0,0.6,0.1,1.2,0.1,1.9c0,0.2,0,0.4,0,0.5
		c0,0.1-0.1,0.3-0.2,0.4c-0.1,0.1-0.3,0.2-0.6,0.4c-0.3,0.1-0.6,0.3-1.1,0.4c-0.5,0.2-0.7,0.1-0.7-0.3v-1.4h-10.5v0.5
		c0,0.4-0.1,0.6-0.2,0.8c-0.1,0.2-0.5,0.4-1.1,0.7c-0.6,0.3-0.9,0.3-1.1,0.2s-0.2-0.5-0.2-1.1c0-0.6,0.1-1.3,0.1-2
		c0-0.7,0-1.7,0-2.8V4.5c0-0.9,0-2-0.1-3.3l2.8,1.5h10l1-1.5L318.5,2.8z M315.3,3.6h-10.5V7h10.5V3.6z M315.3,8h-10.5v3.5h10.5V8z"
		/>
	<path class="st0" d="M348.3,22.2c-0.8,0.1-1.8,0.2-2.8,0.2c-1,0-2.1,0.1-3.2,0.1v3.7h5.7l2-2.4l2.3,2.6c0.2,0.2,0.3,0.4,0.2,0.6
		s-0.2,0.2-0.5,0.2h-9.7v3.9h10l2.4-2.7l2.6,3c0.4,0.5,0.3,0.8-0.3,0.8h-28.7c-0.6,0-1,0-1.4,0.1c-0.3,0.1-0.7,0.2-1,0.3l-1.3-1.6
		c0.6,0.1,1,0.1,1.5,0.1c0.4,0,0.9,0,1.5,0h12.2v-3.9h-6.7c-0.6,0-1,0-1.4,0.1s-0.7,0.1-1,0.3l-1.3-1.5c0.6,0.1,1,0.1,1.5,0.1
		c0.4,0,0.9,0,1.5,0h7.4v-3.6c-1.7,0-3.5,0-5.3,0c-1.8,0-3.7-0.1-5.5-0.2l-0.1-0.8c3-0.1,5.6-0.2,7.9-0.3c2.3-0.1,4.4-0.3,6.2-0.5
		c1.8-0.2,3.4-0.4,4.8-0.7c1.4-0.3,2.6-0.6,3.7-0.9l1.9,2.4c0.2,0.3,0.3,0.4,0.1,0.5c-0.1,0.1-0.4,0.1-0.7,0c-0.1,0-0.4-0.1-0.7-0.1
		c-0.3,0-0.7,0-1.2,0s-0.9,0-1.3,0S348.7,22.2,348.3,22.2z M330,7.4h-1.6c-0.6,0-1,0-1.4,0.1c-0.3,0-0.7,0.1-1,0.3l-1.2-1.5
		c0.6,0.1,1,0.1,1.5,0.1s0.9,0,1.4,0h9.3l1.8-2l1.9,2.3c0.2,0.2,0.3,0.4,0.2,0.5s-0.2,0.2-0.5,0.2h-8.2V12c0,0.7,0.1,1.2,0.3,1.4
		c0.2,0.2,0.6,0.3,1.3,0.3c0.5,0,0.9,0,1.3,0c0.4,0,0.8,0,1.2,0c0.5,0,1-0.1,1.3-0.2c0.3-0.1,0.6-0.3,0.8-0.5
		c0.4,0.3,0.7,0.6,0.9,0.9c0.3,0.3,0.4,0.5,0.6,0.8c0.3,0.4,0.2,0.6-0.3,0.8c-0.3,0.1-0.6,0.2-1,0.2c-0.3,0-0.9,0.1-1.6,0.1
		c-0.5,0-1.1,0.1-1.6,0.1c-0.6,0-1.1,0-1.7,0c-0.8,0-1.4-0.1-1.9-0.2c-0.5-0.1-0.9-0.3-1.1-0.6c-0.3-0.3-0.5-0.6-0.5-1
		c-0.1-0.4-0.1-0.9-0.1-1.5V7.4z M335.8,4.3c0,0.2,0,0.5-0.1,0.7c-0.1,0.2-0.2,0.4-0.4,0.6c-0.2,0.2-0.3,0.3-0.5,0.4
		c-0.2,0.1-0.4,0.2-0.5,0.2c-0.5,0-0.8-0.3-0.8-1c-0.1-0.8-0.3-1.5-0.6-2c-0.3-0.5-0.7-1.1-1.3-1.7l0.3-0.4c0.8,0.3,1.5,0.5,2,0.7
		c0.5,0.2,0.9,0.5,1.2,0.7s0.5,0.5,0.6,0.8C335.8,3.6,335.8,3.9,335.8,4.3z M355.4,3.5c0.2,0.2,0.4,0.3,0.3,0.4
		c0,0.1-0.2,0.2-0.4,0.4l-0.9,0.5v9.6c0,0.6,0,1.1-0.1,1.5c-0.1,0.4-0.2,0.7-0.4,1c-0.2,0.3-0.5,0.6-0.9,0.8s-0.9,0.5-1.5,0.9
		c-0.5,0.3-0.8,0.2-0.9-0.3c-0.1-0.5-0.3-1-0.8-1.3c-0.4-0.3-1.2-0.6-2.3-0.9l0.1-0.5c1,0.1,1.8,0.1,2.4,0.1c0.6,0,1.1-0.1,1.4-0.2
		c0.3-0.1,0.5-0.3,0.6-0.5c0.1-0.2,0.1-0.5,0.1-0.8V13h-8c-0.1,0.9-0.3,1.7-0.7,2.4c-0.3,0.7-0.8,1.3-1.4,1.8
		c-0.6,0.5-1.4,1-2.3,1.5s-2.1,0.9-3.5,1.4l-0.3-0.5c1.3-0.7,2.3-1.3,3.1-1.9c0.8-0.6,1.4-1.2,1.8-1.8c0.4-0.6,0.7-1.4,0.8-2.2
		c0.1-0.8,0.2-1.8,0.2-2.9V5.4c0-0.7,0-1.4,0-1.9c0-0.5,0-1.1-0.1-1.8l2.5,1.5h7.6l1.1-1.6L355.4,3.5z M352.1,8.8h-7.8v1.8
		c0,0.3,0,0.5,0,0.7s0,0.5,0,0.7h7.9V8.8z M352.1,4.3h-7.8v3.6h7.8V4.3z"/>
</g>
</svg>
