<?xml version="1.0" encoding="utf-8"?>
<!-- Generator: Adobe Illustrator 19.1.0, SVG Export Plug-In . SVG Version: 6.00 Build 0)  -->
<svg version="1.1" id="Layer_1" xmlns="http://www.w3.org/2000/svg" xmlns:xlink="http://www.w3.org/1999/xlink" x="0px" y="0px"
	 viewBox="-36 373.9 420 46.1" style="enable-background:new -36 373.9 420 46.1;" xml:space="preserve">
<style type="text/css">
	.st0{fill:#FFFFFF;}
</style>
<g>
	<path class="st0" d="M-13.2,408.5c0.1,0.9,0,1.6-0.4,2.2c-0.4,0.6-0.8,0.9-1.2,1c-0.4,0-0.7-0.2-1.1-0.8c-0.7-1.2-1.4-2.2-2.1-2.9
		c-0.7-0.7-1.4-1.4-2.2-2v9.6c0,0.5-0.1,0.8-0.2,0.9c-0.1,0.2-0.4,0.3-0.7,0.6c-0.7,0.3-1.3,0.6-2,0.7c-0.4,0.1-0.7,0.1-0.8,0
		c-0.1-0.1-0.1-0.3-0.1-0.6c0-0.7,0.1-1.2,0.1-1.7c0-0.5,0.1-1,0.1-1.4c0-0.5,0-0.9,0-1.4s0-1,0-1.5v-5.9c-0.7,1.1-1.4,2-2,2.8
		c-0.6,0.8-1.3,1.6-2,2.4c-0.7,0.8-1.5,1.5-2.4,2.4c-0.9,0.8-2,1.7-3.2,2.7l-0.5-0.6c1-1.2,1.9-2.3,2.6-3.2c0.8-1,1.4-1.9,2.1-2.9
		c0.6-1,1.2-2,1.7-3s1-2.3,1.6-3.6h-3.7c-0.4,0-0.7,0-1.1,0.1c-0.4,0.1-0.7,0.1-0.8,0.2l-0.8-1.8c0.4,0.1,0.8,0.2,1.1,0.2
		c0.3,0,0.7,0,1.2,0h6.4v-5.8h-7.7c-0.4,0-0.7,0-1.1,0.1c-0.4,0.1-0.7,0.1-0.8,0.2l-0.8-1.9c0.4,0.1,0.8,0.2,1.1,0.2
		c0.3,0,0.7,0,1.2,0h10c1-1.9,1.8-3.5,2.4-4.8c0.6-1.3,1.1-2.7,1.5-4.1c1,0.4,1.8,0.8,2.3,1.1c0.5,0.3,1.1,0.6,1.7,0.9
		c0.4,0.2,0.5,0.4,0.4,0.7c-0.1,0.2-0.3,0.4-0.6,0.4c-0.4,0.1-0.7,0.2-0.9,0.3c-0.2,0.2-0.6,0.5-1.1,1c-0.6,0.6-1,1.1-1.3,1.5
		c-0.3,0.4-0.6,0.8-0.8,1.1c-0.2,0.3-0.5,0.7-0.7,1c-0.2,0.3-0.5,0.6-0.9,1h3.7l1.4-2.1c0.2-0.3,0.4-0.4,0.6-0.5
		c0.2,0,0.5,0.1,0.8,0.4c0.6,0.5,1.1,0.9,1.5,1.3c0.4,0.4,0.9,0.8,1.3,1.2c0.4,0.4,0.6,0.7,0.6,0.9c-0.1,0.1-0.4,0.2-1.1,0.2H-20
		v5.8h3l1.3-2.1c0.2-0.7,0.7-0.7,1.4-0.2c0.4,0.2,0.7,0.5,0.9,0.7c0.2,0.2,0.5,0.4,0.7,0.6c0.2,0.2,0.4,0.4,0.5,0.5
		c0.2,0.2,0.3,0.3,0.6,0.5c0.6,0.6,0.9,0.9,0.8,1c-0.1,0.1-0.6,0.2-1.5,0.2H-20v2.5c1.3,0.3,2.4,0.6,3.2,0.9c0.8,0.3,1.5,0.6,2,0.9
		c0.5,0.3,0.9,0.7,1.1,1C-13.4,407.6-13.2,408-13.2,408.5z M-10.9,383.2c0.7,0.7,0.6,1.1-0.5,1.1h-18.2c-0.4,0-0.7,0-1.1,0.1
		c-0.4,0.1-0.7,0.1-0.8,0.2l-0.8-1.8c0.4,0.1,0.8,0.2,1.1,0.2c0.3,0,0.7,0,1.2,0h7.4c-0.2-0.2-0.4-0.5-0.6-0.8
		c-0.2-0.3-0.3-0.7-0.3-1c0-0.3,0-0.7-0.1-1c0-0.3-0.1-0.6-0.3-1c-0.1-0.4-0.3-0.8-0.6-1.2c-0.3-0.5-0.6-1-1.1-1.6l0.5-0.6
		c1.3,0.4,2.4,0.8,3.2,1.2c0.8,0.4,1.4,0.7,1.8,1.1c0.4,0.4,0.7,0.7,0.8,1.1c0.1,0.4,0.2,0.7,0.2,1.1c0,0.4-0.2,0.9-0.5,1.4
		c-0.3,0.5-0.7,0.9-1.3,1.3h4.2l1.4-2.2c0.2-0.3,0.4-0.5,0.7-0.5c0.2,0,0.5,0.1,0.9,0.4c0.6,0.5,1.2,0.9,1.6,1.3
		C-11.8,382.4-11.4,382.8-10.9,383.2z M-23.9,389.7c0,0.3-0.1,0.7-0.2,1.1c-0.2,0.4-0.4,0.8-0.6,1.1c-0.2,0.4-0.5,0.7-0.8,0.9
		c-0.3,0.2-0.5,0.4-0.7,0.4c-0.2,0-0.5-0.1-0.7-0.3c-0.2-0.2-0.4-0.6-0.4-1.2c-0.1-0.7-0.2-1.4-0.4-1.9c-0.1-0.5-0.2-1-0.4-1.5
		c-0.2-0.5-0.4-0.9-0.6-1.3c-0.2-0.4-0.5-0.9-0.9-1.5l0.7-0.6c1,0.6,1.9,1.2,2.5,1.6c0.7,0.4,1.2,0.8,1.5,1.2c0.4,0.3,0.6,0.7,0.7,1
		C-24,389.1-23.9,389.4-23.9,389.7z M9.4,392.4c0.5,0.6,0.7,1,0.7,1.1c-0.1,0.2-0.4,0.3-0.9,0.3H2.8v19.4c0,0.9,0,1.7,0,2.4
		s0,1.5,0.1,2.3c0,0.2,0,0.4,0,0.5c-0.1,0.1-0.2,0.2-0.4,0.3c-0.3,0.2-0.8,0.4-1.4,0.6c-0.6,0.2-1.1,0.4-1.7,0.6
		c-0.3,0.1-0.5-0.1-0.5-0.6v-25.5h-4.5c-0.1,2.3-0.2,4.1-0.3,5.6c-0.1,1.5-0.2,2.7-0.3,3.7c-0.1,1-0.3,1.8-0.4,2.5s-0.3,1.3-0.5,1.9
		c-0.4,1.1-0.7,2.1-1.1,2.9c-0.4,0.8-0.9,1.6-1.5,2.4c-0.7,0.8-1.5,1.7-2.6,2.7c-1.1,1-2.5,2.3-4.2,3.8l-0.8-0.6
		c1.1-1.3,2.1-2.4,2.9-3.5c0.8-1,1.5-2,2.1-3c0.6-0.9,1.1-1.9,1.4-2.9c0.4-1,0.7-2,0.9-3.2c0.2-1.2,0.4-2.4,0.6-3.9
		c0.1-1.4,0.2-3.1,0.3-5c0-0.6,0-1.5,0-2.9c0-1.4,0-2.9,0-4.7c0-1.7-0.1-3.5-0.1-5.3c0-1.8-0.1-3.4-0.1-4.8c0.8,0.4,1.5,0.8,2.1,1.1
		c0.6,0.3,1.3,0.7,2.1,1.2c1.2-0.5,2.2-0.9,3.1-1.3s1.6-0.8,2.3-1.2c0.7-0.4,1.4-0.8,2.1-1.3c0.7-0.5,1.5-1.1,2.4-1.8
		c0.5,0.6,1.1,1.3,1.6,2s1,1.3,1.3,1.8c0.4,0.7,0.6,1.1,0.5,1.2c-0.1,0.2-0.5,0.1-1.2-0.1c-0.2-0.1-0.4-0.2-0.6-0.2
		c-0.2,0-0.4,0-0.6,0c-0.2,0-0.5,0-0.9,0.1c-0.4,0.1-0.9,0.2-1.6,0.3c-2,0.4-3.7,0.8-5,1c-1.3,0.2-2.5,0.4-3.6,0.5
		c0,1.8,0,3.5,0,4.9s0,2.9-0.1,4.1h9.2l1.3-2.6c0.2-0.4,0.4-0.6,0.6-0.5c0.2,0,0.4,0.1,0.7,0.4c0.6,0.5,1.2,1.1,1.8,1.6
		C8.6,391.5,9.1,392,9.4,392.4z"/>
	<path class="st0" d="M20,381.9h4.2l1.1-1.5c0.2-0.3,0.5-0.5,0.7-0.5c0.2,0,0.7,0.3,1.5,0.8c0.8,0.5,1.4,0.9,1.8,1.1
		c0.4,0.2,0.6,0.5,0.6,0.8c0,0.3-0.6,0.7-1.8,1.3v23.7c0,1.6,0,2.6,0,3.1l0,1.4c0,0.2-0.1,0.4-0.4,0.6c-0.2,0.2-0.8,0.4-1.6,0.8
		c-0.8,0.3-1.3,0.5-1.5,0.5c-0.2,0-0.3-0.2-0.3-0.6v-4.1H19v5.2c0,0.3,0,0.5-0.1,0.6c0,0.1-0.3,0.3-0.9,0.5
		c-0.5,0.2-1.1,0.5-1.7,0.6c-0.6,0.2-0.9,0.3-1.1,0.3c-0.1,0-0.2-0.1-0.1-0.4c0.2-1.5,0.2-3.1,0.2-4.7v-27.9c0-1.5,0-2.8-0.1-4
		C17.1,380.2,18.7,381,20,381.9z M24.6,395.1v-12H19v12H24.6z M24.6,407.7v-11H19v11H24.6z M38.5,385.8H33c-0.8,0-1.5,0.1-2,0.3
		l-0.8-2c0.7,0.2,1.4,0.2,2.3,0.2h6v-4.6c0-2.3,0-3.7-0.1-4.2c4.1,0.8,6.1,1.5,6.1,2c0,0.2-0.7,0.8-2,1.5v5.2h5.1l2.1-2.6
		c0.2-0.3,0.5-0.4,0.7-0.4c0.2,0,1,0.6,2.3,1.8c1.3,1.2,1.9,1.9,1.9,2.2s-0.3,0.5-0.9,0.5H42.5v7.6h6.3l2-2.9
		c0.2-0.3,0.4-0.5,0.6-0.5c0.4,0,1.2,0.7,2.4,2c1.2,1.3,1.8,2.1,1.8,2.3c0,0.2-0.3,0.4-0.9,0.4H44.2c0.9,0.2,1.8,0.5,2.8,0.8
		c0.9,0.4,1.4,0.6,1.4,0.8c0,0.2-0.5,0.6-1.4,1.1v2.8h2.5l1.9-2.5c0.2-0.2,0.4-0.4,0.6-0.4c0.2,0,1,0.6,2.1,1.7
		c1.2,1.2,1.8,1.8,1.8,2.1s-0.3,0.4-0.9,0.4h-8v13.9c0,1.1-0.1,1.8-0.4,2.3c-0.2,0.4-1,0.9-2.3,1.6c-1.3,0.6-2.1,0.9-2.4,0.9
		c-0.3,0-0.5-0.2-0.7-0.7c-0.4-1.2-0.9-2-1.4-2.4c-0.6-0.4-1.9-1-4-1.6l0.3-1.1c3,0.6,4.8,0.9,5.5,0.9s1.1-0.1,1.3-0.3
		s0.2-0.6,0.2-1.2v-12.1H31.7c-0.7,0-1.3,0.1-1.9,0.2l-0.8-1.8c0.7,0.2,1.4,0.2,2.3,0.2H43c0-3,0-4.8-0.1-5.5H31.5
		c-0.7,0-1.3,0.1-1.9,0.2l-0.8-1.7c0.7,0.2,1.4,0.2,2.3,0.2h7.3V385.8z M31.9,402.9c2.2,1.1,3.8,2,4.8,2.6c1,0.7,1.7,1.3,2,1.8
		c0.3,0.5,0.5,1.1,0.5,1.8c0,0.7-0.2,1.5-0.7,2.2c-0.5,0.7-0.9,1.1-1.4,1.1c-0.3,0-0.5-0.1-0.6-0.2c-0.1-0.2-0.3-0.5-0.4-1
		c-0.4-1.4-0.9-2.7-1.7-3.8c-0.7-1.1-1.7-2.4-3-3.7L31.9,402.9z"/>
	<path class="st0" d="M66.3,395c-2.1,3.1-4.6,6.2-7.5,9.2l-0.8-0.7c2.4-3.1,4.7-7.3,6.9-12.5c2.2-5.2,3.7-10,4.4-14.4
		c1.6,0.6,3,1.2,4.1,1.7c1.1,0.5,1.8,0.9,1.9,1c0.1,0.1,0.2,0.3,0.2,0.5c0,0.2-0.2,0.4-0.7,0.5c-0.5,0.1-0.9,0.4-1.1,0.8
		c-0.3,0.4-0.8,1.4-1.4,3c-0.7,1.6-1.5,3.4-2.6,5.3c1.1,0.2,1.6,0.4,1.6,0.6s-0.4,0.6-1.1,1.1v26.1c0,0.3,0,0.5-0.1,0.6
		c-0.1,0.1-0.4,0.3-1,0.5c-0.6,0.3-1.2,0.5-1.8,0.7c-0.6,0.2-0.9,0.3-1.1,0.3c-0.1,0-0.2-0.1-0.2-0.4l0.1-2.9c0.1-2.1,0.1-4,0.1-5.5
		V395z M81,393.9l-6.1,0.3c-0.6,0.1-1.3,0.2-1.9,0.6l-1.1-2.4c0.7,0.1,1.6,0.2,2.6,0.1l6.4-0.3l-0.9-15.3c1.1,0.2,2.4,0.5,3.8,0.9
		s2.3,0.6,2.5,0.7c0.2,0.1,0.3,0.2,0.3,0.4c0,0.3-0.6,0.8-1.8,1.4c-0.1,2.3-0.1,4.4-0.1,6.3c0,1.9,0,3.7,0.1,5.4l8.6-0.4l2.4-3.2
		c0.2-0.3,0.5-0.5,0.7-0.5c0.2,0,0.7,0.3,1.5,1l2.4,2c0.8,0.7,1.2,1.2,1.2,1.5c0,0.3-0.3,0.5-0.9,0.6l-15.8,0.7
		c0.3,4,1.1,7.3,2.2,9.9c1.1,2.6,2.7,4.8,4.8,6.5c2.1,1.8,3.5,2.6,4.3,2.6c0.5,0,1-0.4,1.3-1.2c0.4-0.8,1-3.2,1.8-7.1l1.1,0.2
		c-0.3,2.7-0.5,4.6-0.5,5.8c0,1.2,0.1,2.2,0.3,3.1c0.2,0.9,0.7,2,1.4,3.4c0.2,0.4,0.3,0.7,0.3,1c0,0.7-0.5,1-1.5,1
		c-1.7,0-3.7-0.6-6.2-1.7c-2.4-1.2-4.6-2.8-6.5-4.9c-1.9-2.1-3.4-4.6-4.5-7.5C82.1,401.8,81.3,398.2,81,393.9z M87.4,379.9
		c3.2,1.1,5.4,2,6.5,2.7c1.1,0.7,1.7,1.5,1.7,2.4s-0.2,1.6-0.7,2.4s-1,1.1-1.6,1.1c-0.3,0-0.5-0.1-0.7-0.3c-0.2-0.2-0.4-0.6-0.7-1.3
		c-1-2.1-2.6-4.2-4.8-6.3L87.4,379.9z"/>
	<path class="st0" d="M116.4,386h4.5l1.3-1.9c0.2-0.3,0.5-0.5,0.7-0.5c0.2,0,1,0.4,2.4,1.3c1.3,0.8,2,1.5,2,1.9
		c0,0.4-0.6,0.9-1.8,1.3v20.7c0,1.4,0,2.3,0,2.9l0,1.6c0,0.2,0,0.3-0.1,0.4c-0.1,0.1-0.4,0.3-0.8,0.5c-0.5,0.2-1.1,0.5-1.8,0.7
		s-1.1,0.3-1.3,0.3c-0.2,0-0.3-0.2-0.3-0.5v-2.9h-7.6v2.8c0,0.3-0.1,0.6-0.4,0.8c-0.3,0.2-0.9,0.5-1.8,0.8c-1,0.4-1.6,0.5-1.8,0.5
		c-0.3,0-0.4-0.2-0.4-0.6c0.2-1.4,0.2-3,0.2-4.6v-23.8c0-1.3,0-2.6-0.1-4c1.7,0.6,3.3,1.3,4.7,2.1c0.9-4.2,1.4-7.7,1.4-10.3
		c1.4,0.3,2.7,0.7,3.9,1.1c1.2,0.5,1.9,0.8,2.1,0.9c0.2,0.2,0.3,0.3,0.3,0.5c0,0.3-0.2,0.5-0.7,0.7c-0.4,0.1-0.8,0.5-1.2,1.2
		C119.4,380.7,118.2,382.7,116.4,386z M121.3,398v-10.5h-7.6V398H121.3z M121.3,410.3v-10.7h-7.6v10.7H121.3z M134,386.9
		c-1.3,2.7-3.7,6.3-7.1,10.8l-0.8-0.5c1.9-4.2,3.4-7.8,4.3-10.7c0.9-2.9,1.9-6.7,2.8-11.4c1.4,0.5,2.7,1,3.8,1.4
		c1.1,0.5,1.8,0.8,2,1c0.2,0.2,0.4,0.4,0.4,0.6c0,0.2-0.3,0.4-0.8,0.5c-0.5,0.1-0.9,0.3-1,0.6c-0.2,0.2-0.5,1.1-1.1,2.4
		c-0.6,1.4-1.1,2.6-1.7,3.8h6.3l1.3-1.9c0.3-0.4,0.6-0.6,0.9-0.6c0.3,0,1.1,0.5,2.5,1.5c1.4,1,2.1,1.7,2.1,2.1c0,0.4-0.7,0.9-2,1.4
		c-0.2,9.7-0.4,16.1-0.5,19.2c-0.1,3.1-0.3,5.1-0.5,6.2c-0.2,1.1-0.6,2.1-1.2,3c-0.6,0.9-1.6,1.6-2.8,2.2c-1.3,0.6-2.2,0.9-2.7,0.9
		c-0.2,0-0.4-0.2-0.6-0.7c-0.2-0.9-0.6-1.6-0.9-2.1c-0.4-0.5-1-1-1.9-1.4c-0.9-0.4-2.3-0.9-4.1-1.4l0.2-1c3.7,0.5,6,0.8,7,0.8
		c1,0,1.6-0.1,2-0.3c0.4-0.2,0.6-0.5,0.7-1c0.1-0.5,0.2-1.5,0.4-3.2c0.1-1.7,0.2-4.5,0.4-8.3c0.1-3.8,0.2-8.4,0.2-13.8H134z
		 M130.8,395.4c2.2,1.6,3.8,2.8,4.7,3.6c0.9,0.8,1.4,1.4,1.7,1.8c0.3,0.4,0.4,0.9,0.4,1.5c0,1.1-0.4,2.1-1.1,3
		c-0.7,0.9-1.3,1.3-1.8,1.3c-0.5,0-0.8-0.6-1-1.9c-0.2-1.3-0.6-2.7-1.2-4.3c-0.6-1.6-1.4-3-2.3-4.3L130.8,395.4z"/>
	<path class="st0" d="M167.1,392.5h-8.5c-0.8,0-1.5,0.1-2,0.3l-1.3-2.1c0.4,0.1,1.2,0.1,2.3,0.1h9.4v-10.3c0-1.6,0-2.9-0.1-4.2
		c1.4,0.3,2.6,0.6,3.6,1c1,0.4,1.7,0.6,2,0.7c0.3,0.1,0.4,0.3,0.4,0.4c0,0.2-0.6,0.7-1.7,1.3v36.7c0,0.2-0.1,0.4-0.2,0.5
		c-0.1,0.1-0.5,0.3-1.1,0.6s-1.2,0.5-1.7,0.7c-0.5,0.1-0.9,0.2-1.2,0.2c-0.3,0-0.4-0.2-0.4-0.5c0.2-3.1,0.4-6.3,0.4-9.8v-1.7l-3.5,2
		c-2.2,1.3-4.2,2.6-6.1,3.9c-0.4,0.3-0.7,0.4-0.8,0.4c-0.3,0-1.1-1.6-2.2-4.8c3.6-0.8,6.7-1.7,9.3-2.6l3.3-1.1V392.5z M180.8,394.5
		c2.9-2.5,5.4-5.5,7.8-9.2c2.8,2.5,4.2,4,4.2,4.6c0,0.2-0.2,0.4-0.6,0.4l-0.8-0.1c-0.6,0-1.3,0.3-2.1,1c-3.2,2.5-6,4.4-8.4,5.7v14
		c0,0.8,0.1,1.3,0.2,1.6c0.2,0.2,0.6,0.4,1.2,0.5c0.7,0.1,1.8,0.2,3.3,0.2c1.6,0,2.6-0.2,3.2-0.5c0.6-0.3,1-1.1,1.4-2.3
		c0.3-1.2,0.8-3.5,1.3-6.9h1.1c0,2.3,0.1,4.1,0.2,5.3c0.1,1.2,0.3,2,0.6,2.5c0.3,0.5,0.7,0.9,1.2,1.3c0.5,0.3,0.8,0.6,0.8,0.9
		c0,0.2-0.2,0.7-0.7,1.4c-0.5,0.7-1,1.2-1.6,1.6c-0.6,0.4-1.3,0.6-2.1,0.7c-0.8,0.1-2.6,0.1-5.3,0.1c-2.8,0-4.8-0.1-6-0.3
		s-2-0.6-2.4-1.3c-0.4-0.7-0.5-2-0.5-3.9v-30.3c0-2.1,0-3.9-0.1-5.2c1.2,0.2,2.3,0.5,3.5,1c1.2,0.4,1.9,0.7,2.2,0.9
		c0.3,0.2,0.4,0.3,0.4,0.4c0,0.3-0.7,0.7-2,1.3V394.5z"/>
	<path class="st0" d="M219.9,384.6c0.8,0.9,0.7,1.3-0.6,1.3h-8.2v4h2.4l0.8-1c0.2-0.2,0.3-0.4,0.5-0.4c0.2,0,0.4,0.1,0.8,0.4
		c0.4,0.2,0.8,0.5,1.2,0.7c0.4,0.2,0.8,0.5,1.1,0.7c0.4,0.3,0.6,0.6,0.5,0.8c-0.1,0.2-0.5,0.5-1.2,0.9v6.3c0,0.8,0,1.6,0,2.2
		c0,0.6,0.1,1.3,0.1,2.1c0,0.3-0.1,0.5-0.3,0.7c-0.4,0.2-0.7,0.4-1,0.5c-0.3,0.1-0.7,0.3-1.3,0.4c-0.4,0.1-0.6,0-0.6-0.3V403h-3v4.7
		h3l1.3-2.1c0.2-0.2,0.3-0.4,0.5-0.4s0.5,0.1,0.8,0.4c0.5,0.4,0.9,0.8,1.1,1.2c0.2,0.4,0.5,0.8,0.8,1.2c0.7,0.7,0.5,1-0.3,1h-7.3v5
		c0,0.8,0,1.6,0,2.2c0,0.6,0,1.3,0.1,2c0,0.4-0.1,0.6-0.3,0.7c-0.6,0.3-1,0.6-1.4,0.8c-0.3,0.2-0.8,0.4-1.3,0.5
		c-0.2,0.1-0.4,0-0.4-0.4c0.1-0.9,0.1-1.8,0.1-2.7c0-0.9,0-1.9,0-2.9v-5.2h-6.5c-0.3,0-0.7,0-1.1,0.1s-0.7,0.1-0.9,0.2l-0.8-1.9
		c0.4,0.1,0.8,0.2,1.1,0.2c0.3,0,0.7,0,1.2,0h7V403h-3.1v0.3c0,0.2,0,0.4-0.1,0.5s-0.2,0.2-0.4,0.3c-0.4,0.2-0.8,0.4-1.2,0.6
		c-0.4,0.1-0.9,0.3-1.6,0.4c-0.3,0.1-0.4-0.1-0.4-0.5c0-0.4,0.1-0.8,0.1-1c0-0.3,0.1-0.6,0.1-0.8c0-0.3,0-0.6,0-0.9
		c0-0.3,0-0.7,0-1.2v-7.4c0-0.8,0-1.6,0-2.4c0-0.8-0.1-1.5-0.1-2.3c0.2,0.1,0.5,0.2,0.8,0.3c0.4,0.1,0.7,0.2,1.1,0.3
		c0.4,0.1,0.7,0.2,1.1,0.4c0.4,0.1,0.6,0.2,0.8,0.3h2.5v-4h-5.5c-0.3,0-0.7,0-1.1,0.1c-0.4,0-0.7,0.1-0.9,0.2l-0.8-1.8
		c0.4,0.1,0.8,0.2,1.1,0.2c0.3,0,0.7,0,1.2,0h6v-4c0-1.1,0-1.9,0-2.5s0-1.1-0.1-1.6c1,0.2,1.8,0.4,2.3,0.5c0.5,0.1,1.1,0.3,1.7,0.5
		c0.8,0.2,1.1,0.5,1.1,0.8c-0.1,0.3-0.6,0.7-1.7,1.3v5h3.6l1.4-2.4c0.2-0.3,0.3-0.4,0.4-0.4c0.1,0,0.4,0.1,0.7,0.4
		c0.3,0.2,0.7,0.6,1.3,1.1C219.1,383.8,219.6,384.2,219.9,384.6z M214.3,391.3h-9.2v4.3h9.2V391.3z M214.3,397.1h-9.2v4.6h9.2V397.1
		z M220.2,408.2c0.2-0.5,0.5-1,0.7-1.5c0.2-0.6,0.5-1.3,0.9-2.1h-0.6c-0.4,0-0.7,0-1.1,0.1s-0.7,0.1-0.8,0.2l-0.8-1.9
		c0.4,0.1,0.8,0.2,1.1,0.2c0.3,0,0.7,0,1.2,0h7.3c0-0.7,0-1.3,0-1.8c0-0.5,0-0.9-0.1-1.3c0.7,0.2,1.3,0.3,1.8,0.4
		c0.5,0.1,1,0.3,1.7,0.5c0.5,0.2,0.8,0.3,0.8,0.5c0,0.2-0.2,0.4-0.7,0.7v1.1h4.3l1.2-1.9c0.2-0.3,0.4-0.5,0.6-0.5
		c0.2,0,0.5,0.2,0.9,0.5c0.4,0.3,0.8,0.7,1.2,1c0.3,0.3,0.8,0.7,1.3,1.1c0.5,0.5,0.8,0.8,0.7,0.9c-0.1,0.2-0.5,0.2-1.1,0.2h-9v5.2
		h5.9l1.3-2c0.3-0.4,0.6-0.6,0.8-0.6c0.2,0,0.5,0.2,0.8,0.5c0.5,0.5,1,0.9,1.4,1.2c0.4,0.3,0.7,0.6,1.1,1c0.4,0.4,0.6,0.7,0.5,0.9
		c0,0.2-0.4,0.3-1,0.3h-10.7v3.3c0,0.8,0,1.6,0,2.2c0,0.6,0,1.3,0.1,2c0,0.4-0.1,0.7-0.3,0.7c-0.6,0.3-1.1,0.5-1.5,0.7
		c-0.4,0.2-0.9,0.3-1.5,0.4c-0.2,0-0.4-0.1-0.4-0.4c0.1-0.9,0.1-1.8,0.1-2.7c0-0.9,0-1.9,0-2.9V411h-5.5L222,412
		c-0.2,0.2-0.3,0.4-0.4,0.5c-0.1,0.1-0.2,0.1-0.5,0.1c-0.7,0-1.2,0-1.5-0.1c-0.4,0-0.8-0.1-1.3-0.3c-0.3-0.1-0.5-0.2-0.5-0.4
		s0.1-0.3,0.2-0.5c0.5-0.5,0.9-1,1.2-1.5C219.5,409.4,219.8,408.8,220.2,408.2z M242.4,388.2c0.9,0.8,0.8,1.2-0.3,1.2h-21.3
		c-0.4,0-0.7,0-1.1,0.1c-0.4,0.1-0.7,0.1-0.8,0.2l-0.8-1.9c0.4,0.1,0.8,0.2,1.1,0.2c0.3,0,0.7,0,1.2,0h4.3c0.2-1.1,0.4-2,0.5-2.7
		c0.1-0.7,0.3-1.4,0.4-2.1h-2.7c-0.4,0-0.7,0-1.1,0.1c-0.4,0.1-0.7,0.2-0.8,0.3l-0.8-2c0.4,0.1,0.8,0.2,1.1,0.2c0.3,0,0.7,0,1.2,0
		h3.3c0.1-1.1,0.3-2,0.4-2.8c0.2-0.8,0.3-1.8,0.5-3c0.4,0.1,0.8,0.2,1.1,0.3c0.3,0.1,0.6,0.2,0.9,0.3s0.6,0.2,0.9,0.3
		c0.3,0.1,0.6,0.2,1.1,0.3c1.1,0.3,1.1,0.7,0.1,1.1c-0.3,0.1-0.5,0.3-0.7,0.4c-0.2,0.2-0.4,0.4-0.4,0.8c-0.1,0.8-0.3,1.6-0.5,2.4
		h3.3l1.1-1.5c0.2-0.2,0.3-0.4,0.5-0.4c0.2,0,0.5,0.2,1,0.4c0.5,0.3,0.9,0.5,1.2,0.7c0.3,0.2,0.7,0.5,1.1,0.8
		c0.4,0.3,0.6,0.5,0.5,0.8c-0.1,0.2-0.7,0.6-1.6,1.1v4.3h1.8l1-1.9c0.2-0.3,0.4-0.5,0.5-0.4c0.2,0,0.4,0.2,0.8,0.5
		c0.5,0.4,0.9,0.7,1.2,1C241.7,387.6,242,387.9,242.4,388.2z M238.6,392.8c0.3,0.2,0.5,0.5,0.4,0.7c-0.1,0.3-0.5,0.6-1.3,1v1.5
		c0,0.8,0,1.7,0.1,2.7c0,0.4-0.1,0.6-0.4,0.7c-0.6,0.2-1,0.4-1.3,0.5c-0.3,0.1-0.8,0.2-1.4,0.3c-0.2,0-0.4-0.1-0.4-0.5v-1h-10.3v1.2
		c0,0.2,0,0.4,0,0.4c0,0.1-0.1,0.1-0.2,0.2c-0.4,0.2-0.9,0.4-1.4,0.6c-0.5,0.1-1.1,0.3-1.6,0.4c-0.2,0.1-0.3-0.1-0.3-0.4
		c0-0.6,0.1-1.2,0.1-1.7c0-0.5,0-1.2,0-1.9v-2.6c0-0.8,0-1.5,0-2c0-0.6-0.1-1.2-0.1-1.9c0.7,0.2,1.3,0.3,2,0.6
		c0.7,0.2,1.3,0.5,2,0.8h9.6l0.7-1.2c0.2-0.3,0.3-0.4,0.4-0.4c0.1,0,0.4,0.1,0.9,0.3c0.4,0.2,0.8,0.5,1.2,0.7
		C237.6,392.2,238.1,392.5,238.6,392.8z M222.8,404.5c0.4,0.2,0.7,0.3,1.1,0.5s0.8,0.4,1.3,0.7c0.4,0.2,0.6,0.4,0.5,0.6
		c0,0.2-0.2,0.4-0.6,0.5c-0.3,0.1-0.6,0.3-0.8,0.7c-0.2,0.4-0.6,1.1-1.2,2.2h4.9v-5.2H222.8z M234.5,393.9h-10.3v3.5h10.3V393.9z
		 M233,383.3h-4.3c-0.2,0.9-0.3,1.7-0.5,2.5c-0.2,0.7-0.4,1.5-0.6,2.4h5.4V383.3z"/>
	<path class="st0" d="M258.3,382.7H280l2.1-3c0.2-0.4,0.5-0.6,0.7-0.6s0.6,0.2,1.1,0.7c0.6,0.4,1.3,1,2.1,1.7
		c0.8,0.7,1.4,1.2,1.7,1.5s0.4,0.6,0.4,0.7c0,0.3-0.2,0.5-0.7,0.5h-16v9.1h5.3l1.9-2.8c0.2-0.3,0.5-0.5,0.6-0.5s0.5,0.2,1.1,0.6
		c0.5,0.4,1.2,0.9,1.9,1.6c0.7,0.7,1.2,1.1,1.3,1.3c0.2,0.2,0.2,0.5,0.2,0.7c0,0.5-0.2,0.7-0.7,0.7h-11.7v9.9h11l2.1-2.8
		c0.2-0.3,0.5-0.4,0.8-0.4c0.3,0,1.2,0.7,2.6,2c1.4,1.3,2.1,2.1,2.1,2.4c0,0.3-0.3,0.4-0.8,0.4h-17.9c0,3.3,0,5.7,0,7.2l0.1,4.2
		c0,0.2-0.1,0.4-0.2,0.6c-0.2,0.2-0.8,0.4-1.9,0.8c-1.1,0.4-1.8,0.6-2,0.6c-0.2,0-0.4-0.2-0.4-0.7l0.1-4.7c0-1.7,0-4.4,0-7.9h-18.4
		c-0.8,0-1.5,0.1-2,0.3l-0.8-2.1c0.7,0.2,1.4,0.2,2.3,0.2h6.6v-9.2c0-2.3,0-3.7-0.1-4.2c1.8,0.5,3.4,1.1,4.8,1.8h7.6v-9.1h-10
		c-1.7,2.8-3.4,5-4.8,6.6c-1.5,1.6-3.4,3.4-5.8,5.3l-0.7-0.7c4.9-5.3,8.6-12.2,10.9-20.6c2.5,1,4.1,1.7,4.8,2.2s1,0.8,1,1.1
		c0,0.3-0.3,0.5-0.8,0.5c-0.5,0.1-1,0.3-1.3,0.7C260.2,379.8,259.4,380.9,258.3,382.7z M267.3,395h-8.2v9.9h8.2V395z"/>
	<path class="st0" d="M300.7,388.5v-4h-5.3c-0.8,0-1.5,0.1-2,0.3l-1.2-1.8c0.7,0.2,1.4,0.2,2.3,0.2h6.2v-3.5c0-1.3,0-2.6-0.1-3.9
		c3.2,0.7,4.8,1.3,4.8,1.7c0,0.2-0.5,0.6-1.5,1v4.7h3.6l1.6-2.3c0.2-0.3,0.4-0.4,0.6-0.4s0.9,0.5,1.9,1.6c1.1,1.1,1.6,1.7,1.6,2
		c0,0.2-0.2,0.4-0.7,0.4h-8.6v4h3l0.7-1.1c0.2-0.2,0.3-0.4,0.6-0.4s0.9,0.3,1.9,0.9c1.1,0.6,1.6,1,1.6,1.3c0,0.3-0.4,0.7-1.3,1.1
		v9.8c0,0.6,0,1.2,0,1.6l0.1,1.2c0,0.4-0.5,0.7-1.4,1.1c-0.9,0.4-1.5,0.6-1.7,0.6c-0.2,0-0.3-0.2-0.3-0.6v-1.5h-3.4v5.2h4.1l1.5-2.3
		c0.2-0.3,0.4-0.4,0.5-0.4c0.3,0,0.9,0.5,2,1.6c1.1,1,1.6,1.7,1.6,2c0,0.3-0.4,0.4-1.1,0.4h-8.6v8.8c0,0.3-0.1,0.6-0.4,0.8
		c-0.3,0.2-0.7,0.5-1.4,0.7c-0.6,0.2-1.1,0.4-1.3,0.4s-0.3-0.1-0.3-0.4l0.1-2.2c0.1-1.5,0.1-2.9,0.1-4.1v-4h-5.9
		c-0.8,0-1.5,0.1-2,0.3l-0.9-1.8c0.7,0.2,1.4,0.2,2.3,0.2h6.4v-5.2h-3.2v1.1c0,0.3-0.1,0.6-0.3,0.7c-0.2,0.2-0.7,0.4-1.3,0.7
		c-0.7,0.3-1.1,0.4-1.3,0.4c-0.2,0-0.3-0.1-0.3-0.4l0-1.6c0-0.5,0-1,0-1.6v-10.9c0-1.3,0-2.6-0.1-4c1.2,0.4,2.3,0.9,3.4,1.5H300.7z
		 M300.7,394.9v-5.2h-3.2v5.2H300.7z M300.7,401.2v-5h-3.2v5H300.7z M303.8,389.7v5.2h3.4v-5.2H303.8z M303.8,396.2v5h3.4v-5H303.8z
		 M320.9,404.4h-5.2c-0.8,0-1.5,0.1-2,0.3l-0.8-2.1c0.7,0.2,1.4,0.2,2.3,0.2h14.3l1.6-1.9c0.2-0.2,0.4-0.4,0.6-0.4s0.6,0.2,1.1,0.7
		l1.6,1.5c0.6,0.5,0.8,0.9,0.8,1.2c0,0.3-0.2,0.5-0.7,0.5h-9.8v11.2h4.3l2-2.9c0.2-0.3,0.4-0.4,0.6-0.4c0.3,0,1.1,0.6,2.5,1.9
		c1.4,1.3,2,2.1,2,2.4s-0.2,0.4-0.7,0.4h-23.7c-0.8,0-1.5,0.1-2,0.3l-0.9-2c0.7,0.2,1.4,0.2,2.3,0.2h9.6V404.4z M313.6,392.4
		c1.7,1.1,3.1,2,4.1,2.9c1,0.9,1.5,1.6,1.5,2.3s-0.3,1.4-0.8,2.1c-0.5,0.7-1.1,1.1-1.6,1.1c-0.2,0-0.3-0.1-0.4-0.2
		c-0.1-0.1-0.3-0.7-0.6-1.8c-0.3-1.1-0.7-2-1.2-2.9c-0.5-0.9-1.3-2-2.4-3.4c2.1-4.3,3.5-7.8,4.2-10.4c2.9,1.1,4.4,1.8,4.4,2.2
		c0,0.2-0.2,0.3-0.5,0.4c-0.3,0-0.6,0.1-0.7,0.3c-0.2,0.1-0.4,0.5-0.8,1C317,388.4,315.3,390.5,313.6,392.4z M329.2,380l1.8-2.7
		c0.2-0.3,0.4-0.4,0.6-0.4s1,0.6,2.2,1.9c1.3,1.3,1.9,2,1.9,2.2c0,0.2-0.2,0.3-0.7,0.3h-19.9c-0.8,0-1.5,0.1-2,0.3l-0.8-1.9
		c0.7,0.2,1.4,0.2,2.3,0.2H329.2z M320.4,392.3c2.3,1.3,3.9,2.3,4.7,3c0.8,0.7,1.2,1.5,1.2,2.2c0,0.8-0.2,1.5-0.6,2.1
		c-0.4,0.7-0.9,1-1.4,1c-0.2,0-0.4-0.1-0.5-0.2c-0.1-0.2-0.3-0.6-0.5-1.2c-0.7-2-2.3-4.3-4.7-6.8c1.9-3.2,3.2-5.3,3.7-6.3
		c0.5-1,1-2.2,1.5-3.7c2.7,1.1,4.1,1.9,4.1,2.2c0,0.2-0.2,0.3-0.7,0.4c-0.3,0.1-0.8,0.5-1.4,1.3
		C324.2,388.5,322.3,390.5,320.4,392.3z M326.9,392.3c1.8,0.7,3.3,1.4,4.6,2.1s1.9,1.5,1.9,2.3c0,0.8-0.2,1.5-0.6,2.2
		c-0.4,0.7-0.8,1-1.3,1c-0.2,0-0.3-0.1-0.4-0.3c-0.1-0.2-0.3-0.5-0.6-1.1c-0.8-1.9-2.4-4-4.8-6.3c2.3-3.4,3.9-6.6,4.9-9.5
		c1.4,0.5,2.5,1,3.2,1.4c0.7,0.4,1.1,0.7,1.1,0.8s-0.2,0.3-0.7,0.4c-0.3,0.1-0.9,0.6-1.6,1.4C331.2,388.4,329.3,390.2,326.9,392.3z"
		/>
	<path class="st0" d="M361.1,383.9c-0.8,10.4-2.6,18-5.2,22.8c-2.6,4.8-8,9.1-16.3,13.1l-0.4-0.8c6.8-4.3,11.4-9.3,13.8-15.2
		c2.4-5.9,3.8-14.9,4.3-27.2c1.4,0.3,2.8,0.7,4,1.1c1.2,0.4,1.9,0.7,2.1,0.8s0.3,0.3,0.3,0.5c0,0.2-0.3,0.4-0.8,0.6
		c-0.5,0.2-0.9,0.4-1.1,0.7c1.3,9.5,3.7,17.1,7.2,22.7c3.5,5.6,8.2,9.6,14.1,11.8l-0.1,0.9c-0.9-0.1-1.7-0.1-2.5-0.1
		c-0.8,0-1.5,0.1-2.1,0.4c-0.6,0.3-1.3,0.8-2.1,1.6c-0.2,0.2-0.4,0.3-0.5,0.3c-0.4,0-1.9-1.6-4.7-4.7s-4.9-6.8-6.4-10.9
		C363,398.3,361.8,392.1,361.1,383.9z"/>
</g>
</svg>
