<?xml version="1.0" encoding="utf-8"?>
<!-- Generator: Adobe Illustrator 19.1.0, SVG Export Plug-In . SVG Version: 6.00 Build 0)  -->
<svg version="1.1" id="Layer_1" xmlns="http://www.w3.org/2000/svg" xmlns:xlink="http://www.w3.org/1999/xlink" x="0px" y="0px"
	 viewBox="0 0 44 44" style="enable-background:new 0 0 44 44;" xml:space="preserve">
<style type="text/css">
	.st0{fill:#FFFFFF;}
</style>
<g id="SC">
	<path d="M2,42h1.1h1.1h1.1h1.1h1.1h1.1h1.1v-1.1v-1.1v-1.1v-1.1v-1.1v-1.1v-1.1H8.5H7.4H6.3H5.2H4.2H3.1H2v1.1v1.1v1.1v1.1v1.1v1.1
		V42 M3.1,40.9v-1.1v-1.1v-1.1v-1.1v-1.1h1.1h1.1h1.1h1.1h1.1v1.1v1.1v1.1v1.1v1.1H7.4H6.3H5.2H4.2H3.1L3.1,40.9z"/>
	<polygon points="2,33.4 3.1,33.4 4.2,33.4 5.2,33.4 6.3,33.4 6.3,32.3 5.2,32.3 5.2,31.2 4.2,31.2 4.2,32.3 3.1,32.3 2,32.3 
		2,33.4 	"/>
	<polygon points="2,31.2 3.1,31.2 4.2,31.2 4.2,30.1 4.2,29 3.1,29 3.1,30.1 2,30.1 2,31.2 	"/>
	<polygon points="2,25.8 3.1,25.8 3.1,24.7 2,24.7 2,25.8 	"/>
	<polygon points="2,21.5 3.1,21.5 3.1,20.4 2,20.4 2,21.5 	"/>
	<polygon points="2,18.2 3.1,18.2 3.1,17.1 4.2,17.1 4.2,16.1 4.2,15 3.1,15 3.1,16.1 2,16.1 2,17.1 2,18.2 	"/>
	<polygon points="2,15 3.1,15 3.1,13.9 4.2,13.9 5.2,13.9 5.2,12.8 6.3,12.8 6.3,11.7 5.2,11.7 5.2,10.6 4.2,10.6 3.1,10.6 
		3.1,11.7 4.2,11.7 4.2,12.8 3.1,12.8 3.1,11.7 2,11.7 2,12.8 2,13.9 2,15 	"/>
	<path d="M2,9.6h1.1h1.1h1.1h1.1h1.1h1.1h1.1V8.5V7.4V6.3V5.2V4.2V3.1V2H8.5H7.4H6.3H5.2H4.2H3.1H2v1.1v1.1v1.1v1.1v1.1v1.1V9.6
		 M3.1,8.5V7.4V6.3V5.2V4.2V3.1h1.1h1.1h1.1h1.1h1.1v1.1v1.1v1.1v1.1v1.1H7.4H6.3H5.2H4.2H3.1L3.1,8.5z"/>
	<polygon points="3.1,27.9 4.2,27.9 4.2,26.9 5.2,26.9 6.3,26.9 7.4,26.9 7.4,25.8 8.5,25.8 8.5,24.7 9.6,24.7 9.6,23.6 8.5,23.6 
		8.5,22.5 9.6,22.5 9.6,23.6 10.6,23.6 10.6,24.7 11.7,24.7 11.7,23.6 12.8,23.6 12.8,22.5 13.9,22.5 13.9,21.5 15,21.5 15,20.4 
		13.9,20.4 12.8,20.4 12.8,21.5 11.7,21.5 10.6,21.5 9.6,21.5 8.5,21.5 7.4,21.5 7.4,20.4 6.3,20.4 6.3,21.5 6.3,22.5 7.4,22.5 
		7.4,23.6 7.4,24.7 6.3,24.7 6.3,23.6 6.3,22.5 5.2,22.5 5.2,23.6 4.2,23.6 3.1,23.6 3.1,24.7 4.2,24.7 4.2,25.8 3.1,25.8 3.1,26.9 
		3.1,27.9 	"/>
	<polygon points="3.1,22.5 4.2,22.5 5.2,22.5 5.2,21.5 4.2,21.5 3.1,21.5 3.1,22.5 	"/>
	<polygon points="3.1,20.4 4.2,20.4 5.2,20.4 6.3,20.4 6.3,19.3 7.4,19.3 7.4,18.2 7.4,17.1 6.3,17.1 6.3,16.1 7.4,16.1 7.4,17.1 
		8.5,17.1 8.5,16.1 9.6,16.1 10.6,16.1 10.6,15 9.6,15 8.5,15 7.4,15 7.4,13.9 6.3,13.9 6.3,15 5.2,15 5.2,16.1 5.2,17.1 5.2,18.2 
		5.2,19.3 4.2,19.3 4.2,18.2 3.1,18.2 3.1,19.3 3.1,20.4 	"/>
	<polygon points="4.2,39.8 5.2,39.8 6.3,39.8 7.4,39.8 7.4,38.8 7.4,37.7 7.4,36.6 6.3,36.6 5.2,36.6 4.2,36.6 4.2,37.7 4.2,38.8 
		4.2,39.8 	"/>
	<polygon points="4.2,7.4 5.2,7.4 6.3,7.4 7.4,7.4 7.4,6.3 7.4,5.2 7.4,4.2 6.3,4.2 5.2,4.2 4.2,4.2 4.2,5.2 4.2,6.3 4.2,7.4 	"/>
	<polygon points="5.2,29 6.3,29 7.4,29 7.4,27.9 6.3,27.9 5.2,27.9 5.2,29 	"/>
	<polygon points="6.3,31.2 7.4,31.2 7.4,30.1 6.3,30.1 6.3,31.2 	"/>
	<polygon points="7.4,32.3 8.5,32.3 8.5,31.2 7.4,31.2 7.4,32.3 	"/>
	<polygon points="7.4,13.9 8.5,13.9 9.6,13.9 10.6,13.9 10.6,15 11.7,15 11.7,13.9 11.7,12.8 10.6,12.8 9.6,12.8 8.5,12.8 8.5,11.7 
		7.4,11.7 7.4,12.8 7.4,13.9 	"/>
	<polygon points="8.5,33.4 9.6,33.4 10.6,33.4 10.6,32.3 10.6,31.2 10.6,30.1 10.6,29 9.6,29 9.6,30.1 8.5,30.1 8.5,31.2 9.6,31.2 
		9.6,32.3 8.5,32.3 8.5,33.4 	"/>
	<polygon points="8.5,29 9.6,29 9.6,27.9 8.5,27.9 8.5,29 	"/>
	<polygon points="8.5,26.9 9.6,26.9 9.6,25.8 8.5,25.8 8.5,26.9 	"/>
	<polygon points="8.5,20.4 9.6,20.4 10.6,20.4 11.7,20.4 11.7,19.3 10.6,19.3 10.6,18.2 10.6,17.1 9.6,17.1 8.5,17.1 8.5,18.2 
		9.6,18.2 9.6,19.3 8.5,19.3 8.5,20.4 	"/>
	<polygon points="8.5,11.7 9.6,11.7 9.6,10.6 8.5,10.6 8.5,11.7 	"/>
	<polygon points="9.6,27.9 10.6,27.9 10.6,29 11.7,29 11.7,30.1 11.7,31.2 12.8,31.2 13.9,31.2 13.9,30.1 13.9,29 12.8,29 
		12.8,27.9 11.7,27.9 11.7,26.9 10.6,26.9 9.6,26.9 9.6,27.9 	"/>
	<polygon points="9.6,25.8 10.6,25.8 10.6,24.7 9.6,24.7 9.6,25.8 	"/>
	<polygon points="10.6,40.9 11.7,40.9 11.7,42 12.8,42 13.9,42 15,42 16.1,42 16.1,40.9 17.1,40.9 17.1,42 18.2,42 18.2,40.9 
		18.2,39.8 17.1,39.8 17.1,38.8 16.1,38.8 16.1,39.8 15,39.8 15,38.8 13.9,38.8 13.9,39.8 12.8,39.8 12.8,38.8 12.8,37.7 11.7,37.7 
		11.7,38.8 10.6,38.8 10.6,39.8 10.6,40.9 	"/>
	<polygon points="10.6,34.4 11.7,34.4 11.7,33.4 10.6,33.4 10.6,34.4 	"/>
	<polygon points="10.6,17.1 11.7,17.1 11.7,16.1 10.6,16.1 10.6,17.1 	"/>
	<polygon points="10.6,10.6 11.7,10.6 11.7,9.6 11.7,8.5 11.7,7.4 10.6,7.4 10.6,8.5 10.6,9.6 10.6,10.6 	"/>
	<polygon points="10.6,6.3 11.7,6.3 11.7,5.2 10.6,5.2 10.6,6.3 	"/>
	<path d="M11.7,35.5h1.1h1.1H15v1.1h1.1h1.1v-1.1h1.1v-1.1v-1.1h-1.1v-1.1v-1.1v-1.1h1.1v1.1v1.1v1.1h1.1h1.1h1.1v-1.1v-1.1h1.1
		v-1.1h-1.1V29v-1.1v-1.1h-1.1h-1.1v1.1h1.1V29h-1.1v-1.1h-1.1V29h-1.1h-1.1v1.1v1.1v1.1H15v-1.1h-1.1v1.1h-1.1h-1.1v1.1h1.1v1.1
		h-1.1V35.5 M13.9,34.4v-1.1H15v1.1H13.9 M19.3,30.1h1.1v1.1h-1.1V30.1L19.3,30.1z"/>
	<path d="M11.7,16.1h1.1h1.1v1.1v1.1H15v-1.1h1.1v1.1h1.1v1.1h1.1h1.1v1.1v1.1h-1.1h-1.1h-1.1H15v1.1h-1.1v1.1H15h1.1v-1.1h1.1h1.1
		h1.1h1.1v1.1h-1.1h-1.1h-1.1h-1.1v1.1h1.1v1.1h1.1h1.1v-1.1h1.1h1.1v-1.1v-1.1v-1.1h1.1h1.1v-1.1h1.1v-1.1v-1.1v-1.1v-1.1h-1.1V15
		h-1.1v1.1v1.1h1.1v1.1v1.1h-1.1v-1.1h-1.1v-1.1v-1.1V15v-1.1h1.1h1.1h1.1h1.1h1.1V15h1.1v1.1h-1.1h-1.1v1.1v1.1v1.1v1.1h1.1v1.1
		v1.1h1.1v-1.1H29v-1.1v-1.1v-1.1h-1.1v1.1h-1.1v-1.1h1.1v-1.1H29h1.1h1.1h1.1h1.1h1.1h1.1v-1.1h1.1h1.1h1.1V15v-1.1h-1.1V15h-1.1
		v-1.1h1.1v-1.1h-1.1v-1.1v-1.1h-1.1h-1.1v1.1v1.1h-1.1v-1.1v-1.1V9.6V8.5V7.4V6.3h-1.1v1.1v1.1v1.1h-1.1v1.1h1.1v1.1h-1.1v1.1v1.1
		h-1.1V15h1.1h1.1v-1.1h1.1h1.1h1.1V15h-1.1v1.1h-1.1V15h-1.1v1.1h-1.1h-1.1H29V15v-1.1h-1.1v-1.1H29h1.1v-1.1H29v-1.1V9.6V8.5h-1.1
		v1.1v1.1h-1.1v1.1v1.1h-1.1h-1.1h-1.1v-1.1h-1.1v1.1h-1.1v-1.1h-1.1v1.1h-1.1v1.1h1.1V15v1.1h-1.1v1.1h1.1v1.1h-1.1h-1.1v-1.1h-1.1
		v-1.1h-1.1H15V15h-1.1v-1.1h-1.1V15h-1.1V16.1 M20.4,19.3h1.1v1.1h-1.1V19.3L20.4,19.3z"/>
	<polygon points="11.7,11.7 12.8,11.7 13.9,11.7 13.9,10.6 12.8,10.6 11.7,10.6 11.7,11.7 	"/>
	<polygon points="11.7,7.4 12.8,7.4 12.8,6.3 11.7,6.3 11.7,7.4 	"/>
	<polygon points="11.7,3.1 12.8,3.1 12.8,2 11.7,2 11.7,3.1 	"/>
	<polygon points="12.8,37.7 13.9,37.7 13.9,36.6 12.8,36.6 12.8,37.7 	"/>
	<polygon points="12.8,26.9 13.9,26.9 15,26.9 15,25.8 15,24.7 13.9,24.7 13.9,25.8 12.8,25.8 12.8,26.9 	"/>
	<polygon points="12.8,24.7 13.9,24.7 13.9,23.6 12.8,23.6 12.8,24.7 	"/>
	<polygon points="12.8,9.6 13.9,9.6 13.9,8.5 12.8,8.5 12.8,9.6 	"/>
	<polygon points="12.8,4.2 13.9,4.2 15,4.2 15,3.1 13.9,3.1 12.8,3.1 12.8,4.2 	"/>
	<polygon points="13.9,6.3 15,6.3 15,7.4 16.1,7.4 17.1,7.4 17.1,6.3 16.1,6.3 16.1,5.2 15,5.2 13.9,5.2 13.9,6.3 	"/>
	<polygon points="15,29 16.1,29 16.1,27.9 17.1,27.9 17.1,26.9 17.1,25.8 16.1,25.8 16.1,26.9 15,26.9 15,27.9 15,29 	"/>
	<polygon points="15,15 16.1,15 16.1,13.9 16.1,12.8 16.1,11.7 16.1,10.6 15,10.6 15,11.7 15,12.8 15,13.9 15,15 	"/>
	<polygon points="15,9.6 16.1,9.6 16.1,8.5 15,8.5 15,9.6 	"/>
	<polygon points="15,3.1 16.1,3.1 16.1,2 15,2 15,3.1 	"/>
	<polygon points="16.1,10.6 17.1,10.6 17.1,11.7 18.2,11.7 19.3,11.7 20.4,11.7 20.4,10.6 20.4,9.6 20.4,8.5 20.4,7.4 19.3,7.4 
		19.3,8.5 19.3,9.6 19.3,10.6 18.2,10.6 18.2,9.6 18.2,8.5 17.1,8.5 17.1,9.6 16.1,9.6 16.1,10.6 	"/>
	<polygon points="16.1,5.2 17.1,5.2 18.2,5.2 19.3,5.2 19.3,4.2 18.2,4.2 18.2,3.1 17.1,3.1 16.1,3.1 16.1,4.2 16.1,5.2 	"/>
	<polygon points="17.1,38.8 18.2,38.8 18.2,37.7 17.1,37.7 17.1,38.8 	"/>
	<polygon points="17.1,15 18.2,15 18.2,13.9 18.2,12.8 17.1,12.8 17.1,13.9 17.1,15 	"/>
	<polygon points="18.2,37.7 19.3,37.7 20.4,37.7 20.4,38.8 21.5,38.8 22.5,38.8 22.5,37.7 21.5,37.7 21.5,36.6 20.4,36.6 19.3,36.6 
		18.2,36.6 18.2,37.7 	"/>
	<polygon points="18.2,7.4 19.3,7.4 19.3,6.3 18.2,6.3 18.2,7.4 	"/>
	<polygon points="19.3,42 20.4,42 20.4,40.9 19.3,40.9 19.3,42 	"/>
	<polygon points="19.3,35.5 20.4,35.5 20.4,34.4 19.3,34.4 19.3,35.5 	"/>
	<polygon points="19.3,4.2 20.4,4.2 21.5,4.2 22.5,4.2 22.5,3.1 23.6,3.1 23.6,2 22.5,2 21.5,2 21.5,3.1 20.4,3.1 20.4,2 19.3,2 
		19.3,3.1 19.3,4.2 	"/>
	<polygon points="21.5,40.9 22.5,40.9 23.6,40.9 23.6,42 24.7,42 24.7,40.9 24.7,39.8 24.7,38.8 25.8,38.8 25.8,37.7 26.9,37.7 
		26.9,36.6 26.9,35.5 25.8,35.5 25.8,36.6 24.7,36.6 24.7,35.5 23.6,35.5 23.6,36.6 22.5,36.6 22.5,37.7 23.6,37.7 23.6,38.8 
		23.6,39.8 22.5,39.8 21.5,39.8 21.5,40.9 	"/>
	<polygon points="21.5,35.5 22.5,35.5 22.5,34.4 21.5,34.4 21.5,35.5 	"/>
	<polygon points="21.5,26.9 22.5,26.9 22.5,27.9 23.6,27.9 23.6,29 24.7,29 24.7,27.9 24.7,26.9 25.8,26.9 25.8,25.8 24.7,25.8 
		23.6,25.8 22.5,25.8 21.5,25.8 21.5,26.9 	"/>
	<polygon points="21.5,11.7 22.5,11.7 22.5,10.6 21.5,10.6 21.5,11.7 	"/>
	<polygon points="21.5,9.6 22.5,9.6 22.5,8.5 22.5,7.4 22.5,6.3 23.6,6.3 24.7,6.3 25.8,6.3 25.8,7.4 26.9,7.4 26.9,6.3 27.9,6.3 
		29,6.3 29,5.2 27.9,5.2 26.9,5.2 25.8,5.2 25.8,4.2 24.7,4.2 23.6,4.2 23.6,5.2 22.5,5.2 21.5,5.2 21.5,6.3 21.5,7.4 21.5,8.5 
		21.5,9.6 	"/>
	<polygon points="22.5,34.4 23.6,34.4 23.6,33.4 22.5,33.4 22.5,34.4 	"/>
	<polygon points="22.5,32.3 23.6,32.3 23.6,31.2 22.5,31.2 22.5,32.3 	"/>
	<polygon points="22.5,24.7 23.6,24.7 24.7,24.7 24.7,23.6 23.6,23.6 23.6,22.5 22.5,22.5 22.5,23.6 22.5,24.7 	"/>
	<polygon points="23.6,22.5 24.7,22.5 24.7,21.5 23.6,21.5 23.6,22.5 	"/>
	<polygon points="23.6,11.7 24.7,11.7 24.7,10.6 24.7,9.6 24.7,8.5 23.6,8.5 23.6,9.6 23.6,10.6 23.6,11.7 	"/>
	<polygon points="24.7,34.4 25.8,34.4 25.8,33.4 24.7,33.4 24.7,34.4 	"/>
	<polygon points="24.7,21.5 25.8,21.5 25.8,20.4 24.7,20.4 24.7,21.5 	"/>
	<polygon points="24.7,8.5 25.8,8.5 25.8,7.4 24.7,7.4 24.7,8.5 	"/>
	<polygon points="25.8,42 26.9,42 26.9,40.9 26.9,39.8 27.9,39.8 29,39.8 30.1,39.8 30.1,38.8 29,38.8 29,37.7 29,36.6 27.9,36.6 
		27.9,37.7 26.9,37.7 26.9,38.8 25.8,38.8 25.8,39.8 25.8,40.9 25.8,42 	"/>
	<polygon points="25.8,31.2 26.9,31.2 26.9,32.3 26.9,33.4 26.9,34.4 26.9,35.5 27.9,35.5 29,35.5 30.1,35.5 31.2,35.5 31.2,34.4 
		30.1,34.4 29,34.4 29,33.4 29,32.3 27.9,32.3 27.9,31.2 29,31.2 30.1,31.2 30.1,30.1 29,30.1 29,29 29,27.9 29,26.9 27.9,26.9 
		27.9,27.9 27.9,29 26.9,29 26.9,30.1 25.8,30.1 25.8,31.2 	"/>
	<polygon points="25.8,27.9 26.9,27.9 26.9,26.9 25.8,26.9 25.8,27.9 	"/>
	<polygon points="25.8,9.6 26.9,9.6 26.9,8.5 25.8,8.5 25.8,9.6 	"/>
	<polygon points="26.9,26.9 27.9,26.9 27.9,25.8 29,25.8 29,26.9 30.1,26.9 30.1,25.8 31.2,25.8 31.2,26.9 30.1,26.9 30.1,27.9 
		31.2,27.9 32.3,27.9 32.3,26.9 33.4,26.9 34.4,26.9 34.4,25.8 34.4,24.7 35.5,24.7 35.5,23.6 34.4,23.6 33.4,23.6 33.4,22.5 
		32.3,22.5 32.3,21.5 33.4,21.5 33.4,20.4 33.4,19.3 33.4,18.2 32.3,18.2 31.2,18.2 30.1,18.2 30.1,19.3 31.2,19.3 32.3,19.3 
		32.3,20.4 31.2,20.4 30.1,20.4 30.1,21.5 31.2,21.5 31.2,22.5 31.2,23.6 32.3,23.6 32.3,24.7 33.4,24.7 33.4,25.8 32.3,25.8 
		32.3,24.7 31.2,24.7 31.2,23.6 30.1,23.6 29,23.6 27.9,23.6 26.9,23.6 26.9,24.7 26.9,25.8 26.9,26.9 	"/>
	<polygon points="27.9,42 29,42 29,40.9 27.9,40.9 27.9,42 	"/>
	<polygon points="29,22.5 30.1,22.5 30.1,21.5 29,21.5 29,22.5 	"/>
	<polygon points="29,3.1 30.1,3.1 31.2,3.1 31.2,2 30.1,2 29,2 29,3.1 	"/>
	<polygon points="30.1,42 31.2,42 31.2,40.9 30.1,40.9 30.1,42 	"/>
	<path d="M30.1,38.8h1.1v1.1h1.1v-1.1v-1.1h1.1h1.1h1.1h1.1v1.1v1.1h1.1v-1.1h1.1v-1.1h-1.1v-1.1h1.1v-1.1h1.1v-1.1h-1.1v-1.1h-1.1
		v-1.1h-1.1v-1.1h-1.1v-1.1h1.1V29h-1.1v-1.1h-1.1h-1.1V29h1.1v1.1h-1.1v1.1h-1.1v-1.1h1.1V29h-1.1h-1.1v1.1v1.1v1.1h1.1v1.1v1.1
		v1.1v1.1h-1.1v1.1h-1.1V38.8 M33.4,36.6v-1.1v-1.1v-1.1h1.1h1.1h1.1v1.1v1.1v1.1h-1.1h-1.1H33.4L33.4,36.6z"/>
	<polygon points="30.1,11.7 31.2,11.7 31.2,10.6 30.1,10.6 30.1,11.7 	"/>
	<polygon points="30.1,9.6 31.2,9.6 31.2,8.5 30.1,8.5 30.1,9.6 	"/>
	<polygon points="30.1,6.3 31.2,6.3 32.3,6.3 32.3,5.2 32.3,4.2 31.2,4.2 30.1,4.2 30.1,5.2 30.1,6.3 	"/>
	<polygon points="32.3,42 33.4,42 33.4,40.9 33.4,39.8 32.3,39.8 32.3,40.9 32.3,42 	"/>
	<polygon points="32.3,4.2 33.4,4.2 33.4,3.1 33.4,2 32.3,2 32.3,3.1 32.3,4.2 	"/>
	<polygon points="34.4,35.5 35.5,35.5 35.5,34.4 34.4,34.4 34.4,35.5 	"/>
	<polygon points="34.4,22.5 35.5,22.5 35.5,21.5 35.5,20.4 36.6,20.4 36.6,19.3 35.5,19.3 35.5,18.2 34.4,18.2 34.4,19.3 34.4,20.4 
		34.4,21.5 34.4,22.5 	"/>
	<path d="M34.4,9.6h1.1h1.1h1.1h1.1h1.1h1.1H42V8.5V7.4V6.3V5.2V4.2V3.1V2h-1.1h-1.1h-1.1h-1.1h-1.1h-1.1h-1.1v1.1v1.1v1.1v1.1v1.1
		v1.1V9.6 M35.5,8.5V7.4V6.3V5.2V4.2V3.1h1.1h1.1h1.1h1.1h1.1v1.1v1.1v1.1v1.1v1.1h-1.1h-1.1h-1.1h-1.1H35.5L35.5,8.5z"/>
	<polygon points="35.5,40.9 36.6,40.9 36.6,39.8 35.5,39.8 35.5,40.9 	"/>
	<polygon points="35.5,27.9 36.6,27.9 36.6,26.9 37.7,26.9 38.8,26.9 39.8,26.9 39.8,25.8 38.8,25.8 37.7,25.8 36.6,25.8 36.6,24.7 
		35.5,24.7 35.5,25.8 35.5,26.9 35.5,27.9 	"/>
	<polygon points="35.5,23.6 36.6,23.6 37.7,23.6 38.8,23.6 38.8,22.5 37.7,22.5 37.7,21.5 36.6,21.5 36.6,22.5 35.5,22.5 35.5,23.6 
			"/>
	<polygon points="35.5,18.2 36.6,18.2 36.6,17.1 35.5,17.1 35.5,18.2 	"/>
	<polygon points="36.6,31.2 37.7,31.2 37.7,30.1 36.6,30.1 36.6,31.2 	"/>
	<polygon points="36.6,7.4 37.7,7.4 38.8,7.4 39.8,7.4 39.8,6.3 39.8,5.2 39.8,4.2 38.8,4.2 37.7,4.2 36.6,4.2 36.6,5.2 36.6,6.3 
		36.6,7.4 	"/>
	<polygon points="37.7,42 38.8,42 38.8,40.9 38.8,39.8 37.7,39.8 37.7,40.9 37.7,42 	"/>
	<polygon points="37.7,32.3 38.8,32.3 38.8,31.2 37.7,31.2 37.7,32.3 	"/>
	<polygon points="37.7,30.1 38.8,30.1 39.8,30.1 40.9,30.1 40.9,31.2 39.8,31.2 39.8,32.3 39.8,33.4 39.8,34.4 40.9,34.4 40.9,35.5 
		42,35.5 42,34.4 42,33.4 42,32.3 42,31.2 42,30.1 42,29 40.9,29 39.8,29 39.8,27.9 38.8,27.9 37.7,27.9 37.7,29 37.7,30.1 	"/>
	<polygon points="37.7,19.3 38.8,19.3 38.8,18.2 39.8,18.2 39.8,17.1 39.8,16.1 38.8,16.1 38.8,17.1 37.7,17.1 37.7,18.2 37.7,19.3 
			"/>
	<polygon points="37.7,11.7 38.8,11.7 38.8,10.6 37.7,10.6 37.7,11.7 	"/>
	<polygon points="38.8,39.8 39.8,39.8 40.9,39.8 42,39.8 42,38.8 40.9,38.8 40.9,37.7 40.9,36.6 40.9,35.5 39.8,35.5 39.8,36.6 
		39.8,37.7 39.8,38.8 38.8,38.8 38.8,39.8 	"/>
	<polygon points="38.8,22.5 39.8,22.5 39.8,21.5 39.8,20.4 38.8,20.4 38.8,21.5 38.8,22.5 	"/>
	<polygon points="38.8,13.9 39.8,13.9 40.9,13.9 42,13.9 42,12.8 42,11.7 40.9,11.7 40.9,12.8 39.8,12.8 39.8,11.7 38.8,11.7 
		38.8,12.8 38.8,13.9 	"/>
	<polygon points="39.8,27.9 40.9,27.9 40.9,26.9 39.8,26.9 39.8,27.9 	"/>
	<polygon points="39.8,25.8 40.9,25.8 40.9,26.9 42,26.9 42,25.8 42,24.7 40.9,24.7 39.8,24.7 39.8,25.8 	"/>
	<polygon points="40.9,42 42,42 42,40.9 40.9,40.9 40.9,42 	"/>
	<polygon points="40.9,23.6 42,23.6 42,22.5 42,21.5 42,20.4 42,19.3 40.9,19.3 40.9,20.4 40.9,21.5 40.9,22.5 40.9,23.6 	"/>
	<polygon points="40.9,18.2 42,18.2 42,17.1 42,16.1 42,15 40.9,15 40.9,16.1 40.9,17.1 40.9,18.2 	"/>
</g>
<rect x="15" y="16.1" width="13.2" height="13"/>
<g id="XMLID_235_">
	<g id="XMLID_297_">
		<path id="XMLID_298_" class="st0" d="M21.6,16.7c-3.2,0-5.8,2.6-5.8,5.8s2.6,5.8,5.8,5.8s5.8-2.6,5.8-5.8S24.8,16.7,21.6,16.7z
			 M21.6,28.1c-3.1,0-5.5-2.5-5.5-5.5s2.5-5.5,5.5-5.5s5.5,2.5,5.5,5.5S24.7,28.1,21.6,28.1z"/>
	</g>
	<g id="XMLID_233_">
		<path id="XMLID_241_" class="st0" d="M21.4,17.8C21.3,17.8,21.3,17.8,21.4,17.8l-0.1,0.9c0,0,0,0.1-0.1,0.1h-0.4
			c0,0-0.1,0-0.1-0.1v-0.8c0,0,0-0.1-0.1-0.1h-0.2c0,0-0.1,0-0.1,0.1v0.8c0,0,0,0.1-0.1,0.1H20c0,0-0.1,0-0.1-0.1v-0.8
			c0,0,0-0.1-0.1-0.1h-0.2c0,0-0.1,0-0.1,0.1V19c0,0,0,0.1,0.1,0.1h1.9c0,0,0.1,0,0.1-0.1v-1.1c0,0,0-0.1-0.1-0.1
			C21.5,17.8,21.4,17.8,21.4,17.8z"/>
		<path id="XMLID_238_" class="st0" d="M18.6,20.3C18.6,20.3,18.6,20.3,18.6,20.3l0.1-0.2c0,0,0-0.1-0.1-0.1H17c0,0-0.1,0-0.1,0.1
			v0.2c0,0,0,0.1,0.1,0.1h0.2c0,0,0.1,0,0.1,0.1v1.8c0,0,0,0.1-0.1,0.1H17c0,0-0.1,0-0.1,0.1v0.2c0,0,0,0.1,0.1,0.1h1.6
			c0,0,0.1,0,0.1-0.1v-0.2c0,0,0-0.1-0.1-0.1h-0.2c0,0-0.1,0-0.1-0.1v-1.8c0,0,0-0.1,0.1-0.1H18.6z M17.9,22.2
			C17.9,22.2,17.9,22.2,17.9,22.2l-0.3,0.1c0,0-0.1,0-0.1-0.1v-1.8c0,0,0-0.1,0.1-0.1h0.2c0,0,0.1,0,0.1,0.1V22.2z"/>
		<path id="XMLID_237_" class="st0" d="M21.5,20.7h-0.7c0,0-0.1,0-0.1-0.1v-0.2c0,0,0-0.1,0.1-0.1h0.7c0,0,0.1,0,0.1-0.1v-0.2
			c0,0,0-0.1-0.1-0.1h-1.8c0,0-0.1,0-0.1,0.1v0.2c0,0,0,0.1,0.1,0.1h0.7c0,0,0.1,0,0.1,0.1v0.2c0,0,0,0.1-0.1,0.1h-0.7
			c0,0-0.1,0-0.1,0.1v1.7c0,0,0,0.1,0.1,0.1h0.2c0,0,0.1,0,0.1-0.1v-1.4c0,0,0-0.1,0.1-0.1h0.1c0,0,0.1,0,0.1,0.1v1.4
			c0,0,0,0.1,0.1,0.1h0.2c0,0,0.1,0,0.1-0.1v-1.4c0,0,0-0.1,0.1-0.1h0.1c0,0,0.1,0,0.1,0.1v1.4c0,0,0,0.1,0.1,0.1H21
			c0,0,0.1,0,0.1-0.1v-1.4c0,0,0-0.1,0.1-0.1h0.1c0,0,0.1,0,0.1,0.1v1.4c0,0,0,0.1,0.1,0.1h0.2c0,0,0.1,0,0.1-0.1L21.5,20.7
			C21.6,20.7,21.6,20.7,21.5,20.7z"/>
		<g id="XMLID_234_">
			<circle class="st0" cx="17.7" cy="18.4" r="0.7"/>
		</g>
	</g>
</g>
</svg>
