<?xml version="1.0" encoding="utf-8"?>
<!-- Generator: Adobe Illustrator 19.1.0, SVG Export Plug-In . SVG Version: 6.00 Build 0)  -->
<svg version="1.1" id="Layer_1" xmlns="http://www.w3.org/2000/svg" xmlns:xlink="http://www.w3.org/1999/xlink" x="0px" y="0px"
	 viewBox="-36 373.9 420 46.1" style="enable-background:new -36 373.9 420 46.1;" xml:space="preserve">
<style type="text/css">
	.st0{fill:#FFFFFF;}
</style>
<g>
	<path class="st0" d="M-29.3,402.4c0.9,0.5,1.8,1,2.6,1.5s1.3,0.8,1.4,0.9c0.1,0.1,0.1,0.2,0.1,0.3c0,0.3-0.3,0.5-0.8,0.6
		c-0.3,0.1-0.5,0.2-0.7,0.4c-0.2,0.2-0.4,0.5-0.7,1.1c-1.5,2.7-3.8,5.7-7,8.8l-0.7-0.6C-32.6,411.2-30.6,406.9-29.3,402.4z
		 M-21.6,392.9c1.2-3.5,2-6.5,2.4-9c2.2,1,3.5,1.6,3.9,1.9c0.4,0.2,0.6,0.5,0.6,0.6c0,0.2-0.3,0.3-0.8,0.4s-0.9,0.4-1.2,1
		c-0.3,0.6-1.4,2.3-3.3,5.2h3.1l1.9-2.2c0.3-0.3,0.5-0.5,0.8-0.5s1,0.6,2.2,1.7c1.2,1.1,1.8,1.8,1.8,2.1c0,0.3-0.4,0.4-1.1,0.4h-9.3
		v5.6h2.6l1.4-2.2c0.2-0.4,0.4-0.6,0.6-0.6c0.2,0,0.7,0.3,1.4,0.8c0.8,0.5,1.4,1.1,2,1.6c0.6,0.5,0.9,0.9,0.9,1.1
		c0,0.4-0.4,0.7-1.2,0.7h-7.8V412c0,1.8-0.1,3.1-0.4,3.7c-0.2,0.7-0.9,1.3-2,2c-1.1,0.6-1.8,1-2.1,1c-0.3,0-0.6-0.2-0.7-0.7
		c-0.2-0.9-0.6-1.6-1.1-2c-0.5-0.4-1.5-1-3.1-1.7v-0.8c2.2,0.4,3.7,0.6,4.3,0.6c0.7,0,1.1-0.1,1.2-0.4c0.2-0.2,0.2-0.7,0.2-1.4
		v-10.7h-6.1c-0.8,0-1.5,0.1-2,0.3l-0.8-2c0.7,0.2,1.4,0.2,2.3,0.2h6.5v-5.6h-6.7c-0.8,0-1.5,0.1-2,0.3l-0.8-2
		c0.7,0.2,1.4,0.2,2.3,0.2H-21.6z M-23.2,382.2c-0.3-0.3-0.6-1-0.7-2c-0.2-1-0.4-1.8-0.9-2.6c-0.4-0.7-1-1.5-1.6-2.3l0.5-0.6
		c1.9,0.7,3.4,1.5,4.5,2.4c1.1,0.9,1.6,1.7,1.6,2.3c0,0.8-0.5,1.7-1.4,2.7h3.1l1.5-2.2c0.2-0.3,0.5-0.5,0.7-0.5c0.2,0,0.5,0.2,1,0.5
		c0.4,0.3,1,0.8,1.7,1.4c0.7,0.6,1.2,1,1.3,1.3c0.2,0.2,0.3,0.4,0.3,0.6c0,0.3-0.3,0.5-1,0.5h-17.5c-0.8,0-1.5,0.1-2,0.3l-0.8-2
		c0.7,0.2,1.4,0.2,2.3,0.2H-23.2z M-28.9,384.2c1.8,1.3,3.1,2.2,3.7,2.9c0.6,0.7,0.9,1.3,0.9,2s-0.2,1.4-0.7,2.2
		c-0.4,0.8-0.8,1.2-1.2,1.2c-0.4,0-0.6-0.1-0.7-0.3c-0.1-0.2-0.3-0.8-0.4-1.9c-0.2-1-0.4-1.9-0.7-2.8c-0.3-0.8-0.8-1.7-1.6-2.8
		L-28.9,384.2z M-19.2,402.8c1.7,1,3.1,2,4.4,3c1.2,1,1.9,1.8,1.9,2.6s-0.3,1.5-0.8,2.4c-0.5,0.8-1,1.3-1.4,1.3s-0.7-0.4-1-1.3
		c-0.7-2.8-1.9-5.2-3.6-7.2L-19.2,402.8z M-5.1,382c2.2-0.8,5.5-2.5,9.8-5.1c2.3,2.9,3.4,4.5,3.4,4.9c0,0.2-0.1,0.3-0.3,0.3
		c-0.2,0-0.5-0.1-0.9-0.2c-0.4-0.2-0.8-0.2-1.2-0.2c-0.4,0-1.9,0.3-4.5,0.8c-2.6,0.6-4.8,0.9-6.4,1l-0.3,9.1h7.9l2.1-2.6
		c0.3-0.3,0.5-0.5,0.7-0.5c0.2,0,1.1,0.7,2.4,2c1.4,1.3,2.1,2.1,2.1,2.5c0,0.2-0.3,0.3-0.9,0.3H2.7v18.7c0,1.5,0,2.6,0,3.2l0,1.7
		c0,0.2-0.1,0.5-0.4,0.6s-0.8,0.4-1.7,0.7c-0.9,0.3-1.4,0.5-1.7,0.5s-0.4-0.2-0.4-0.6v-24.8h-4.5c-0.2,5-0.4,8.3-0.7,10
		c-0.2,1.6-0.6,3.2-1.2,4.7c-0.6,1.5-1.5,3-2.7,4.5c-1.2,1.5-3.1,3.4-5.5,5.6l-0.9-0.8c1.9-2,3.3-3.9,4.3-5.6
		c0.9-1.7,1.6-3.6,2.1-5.8c0.4-2.2,0.7-4.5,0.9-7s0.2-5.9,0.2-10c0-4.1,0-7.4-0.1-9.9C-8,380.6-6.6,381.2-5.1,382z"/>
	<path class="st0" d="M18.8,381.2h5.5l1.1-1.9c0.2-0.3,0.4-0.5,0.7-0.5c0.2,0,0.7,0.3,1.6,0.8c0.9,0.5,1.6,1,2.1,1.4
		c0.5,0.4,0.8,0.7,0.8,0.9c0,0.2-0.6,0.6-1.8,1.3v23.1l0.1,4.2c0,0.4,0,0.6-0.1,0.7c-0.1,0.1-0.4,0.3-0.9,0.6
		c-0.5,0.3-1.1,0.5-1.7,0.7c-0.6,0.2-1,0.3-1.1,0.3s-0.2-0.2-0.2-0.6v-4H18v4.5c0,0.3,0,0.5-0.1,0.6c-0.1,0.1-0.3,0.3-0.8,0.6
		c-0.5,0.3-1.1,0.5-1.7,0.7s-1.1,0.3-1.2,0.3c-0.1,0-0.2-0.1-0.2-0.4c0.2-1.5,0.2-3.1,0.2-4.7v-27.4c0-1.3,0-2.6-0.1-4
		C16.1,379.4,17.7,380.3,18.8,381.2z M24.8,394.3v-11.7H18v11.7H24.8z M24.8,406.8v-11.1H18v11.1H24.8z M48.2,387.3h1.2l1.7-2.4
		c0.2-0.3,0.4-0.5,0.7-0.5s0.9,0.6,2.1,1.9c1.2,1.2,1.7,2,1.7,2.2c0,0.2-0.3,0.3-0.9,0.3h-6.5v24.9c0,1-0.1,1.8-0.2,2.3
		c-0.1,0.5-0.5,1-0.9,1.4c-0.5,0.4-1.3,0.8-2.4,1.2c-1.1,0.4-1.8,0.6-2.1,0.6c-0.3,0-0.5-0.2-0.6-0.7c-0.4-1.3-1-2.3-1.9-2.8
		c-0.9-0.5-2.2-1-3.8-1.5l0.1-0.9c3,0.5,4.9,0.7,5.8,0.7c0.9,0,1.4-0.1,1.6-0.4s0.3-0.8,0.3-1.5v-23.2h-12c-0.8,0-1.4,0.1-2,0.2
		l-0.8-2c0.7,0.2,1.4,0.2,2.3,0.2h12.4v-6.7c0-1.7,0-3.4-0.1-4.9c0.9,0.2,2,0.5,3.5,0.8c1.5,0.4,2.3,0.6,2.5,0.7
		c0.2,0.1,0.3,0.2,0.3,0.4c0,0.4-0.7,0.9-2.1,1.6V387.3z M33.9,393.2c2.1,1.5,3.6,2.8,4.7,4c1.1,1.2,1.6,2.3,1.6,3.3s-0.3,1.9-1,2.7
		c-0.7,0.8-1.4,1.2-2.1,1.2c-0.7,0-1.1-0.5-1.2-1.6c-0.2-3.6-1.3-6.6-3.2-9L33.9,393.2z"/>
	<path class="st0" d="M66.3,395c-2.1,3.1-4.6,6.2-7.5,9.2l-0.8-0.7c2.4-3.1,4.7-7.3,6.9-12.5c2.2-5.2,3.7-10,4.4-14.4
		c1.6,0.6,3,1.2,4.1,1.7c1.1,0.5,1.8,0.9,1.9,1c0.1,0.1,0.2,0.3,0.2,0.5c0,0.2-0.2,0.4-0.7,0.5c-0.5,0.1-0.9,0.4-1.1,0.8
		c-0.3,0.4-0.8,1.4-1.4,3c-0.7,1.6-1.5,3.4-2.6,5.3c1.1,0.2,1.6,0.4,1.6,0.6s-0.4,0.6-1.1,1.1v26.1c0,0.3,0,0.5-0.1,0.6
		c-0.1,0.1-0.4,0.3-1,0.5c-0.6,0.3-1.2,0.5-1.8,0.7c-0.6,0.2-0.9,0.3-1.1,0.3c-0.1,0-0.2-0.1-0.2-0.4l0.1-2.9c0.1-2.1,0.1-4,0.1-5.5
		V395z M81,393.9l-6.1,0.3c-0.6,0.1-1.3,0.2-1.9,0.6l-1.1-2.4c0.7,0.1,1.6,0.2,2.6,0.1l6.4-0.3l-0.9-15.3c1.1,0.2,2.4,0.5,3.8,0.9
		s2.3,0.6,2.5,0.7c0.2,0.1,0.3,0.2,0.3,0.4c0,0.3-0.6,0.8-1.8,1.4c-0.1,2.3-0.1,4.4-0.1,6.3c0,1.9,0,3.7,0.1,5.4l8.6-0.4l2.4-3.2
		c0.2-0.3,0.5-0.5,0.7-0.5c0.2,0,0.7,0.3,1.5,1l2.4,2c0.8,0.7,1.2,1.2,1.2,1.5c0,0.3-0.3,0.5-0.9,0.6l-15.8,0.7
		c0.3,4,1.1,7.3,2.2,9.9c1.1,2.6,2.7,4.8,4.8,6.5c2.1,1.8,3.5,2.6,4.3,2.6c0.5,0,1-0.4,1.3-1.2c0.4-0.8,1-3.2,1.8-7.1l1.1,0.2
		c-0.3,2.7-0.5,4.6-0.5,5.8c0,1.2,0.1,2.2,0.3,3.1c0.2,0.9,0.7,2,1.4,3.4c0.2,0.4,0.3,0.7,0.3,1c0,0.7-0.5,1-1.5,1
		c-1.7,0-3.7-0.6-6.2-1.7c-2.4-1.2-4.6-2.8-6.5-4.9c-1.9-2.1-3.4-4.6-4.5-7.5C82.1,401.8,81.3,398.2,81,393.9z M87.4,379.9
		c3.2,1.1,5.4,2,6.5,2.7c1.1,0.7,1.7,1.5,1.7,2.4s-0.2,1.6-0.7,2.4s-1,1.1-1.6,1.1c-0.3,0-0.5-0.1-0.7-0.3c-0.2-0.2-0.4-0.6-0.7-1.3
		c-1-2.1-2.6-4.2-4.8-6.3L87.4,379.9z"/>
	<path class="st0" d="M116.4,386h4.5l1.3-1.9c0.2-0.3,0.5-0.5,0.7-0.5c0.2,0,1,0.4,2.4,1.3c1.3,0.8,2,1.5,2,1.9
		c0,0.4-0.6,0.9-1.8,1.3v20.7c0,1.4,0,2.3,0,2.9l0,1.6c0,0.2,0,0.3-0.1,0.4c-0.1,0.1-0.4,0.3-0.8,0.5c-0.5,0.2-1.1,0.5-1.8,0.7
		s-1.1,0.3-1.3,0.3c-0.2,0-0.3-0.2-0.3-0.5v-2.9h-7.6v2.8c0,0.3-0.1,0.6-0.4,0.8c-0.3,0.2-0.9,0.5-1.8,0.8c-1,0.4-1.6,0.5-1.8,0.5
		c-0.3,0-0.4-0.2-0.4-0.6c0.2-1.4,0.2-3,0.2-4.6v-23.8c0-1.3,0-2.6-0.1-4c1.7,0.6,3.3,1.3,4.7,2.1c0.9-4.2,1.4-7.7,1.4-10.3
		c1.4,0.3,2.7,0.7,3.9,1.1c1.2,0.5,1.9,0.8,2.1,0.9c0.2,0.2,0.3,0.3,0.3,0.5c0,0.3-0.2,0.5-0.7,0.7c-0.4,0.1-0.8,0.5-1.2,1.2
		C119.4,380.7,118.2,382.7,116.4,386z M121.3,398v-10.5h-7.6V398H121.3z M121.3,410.3v-10.7h-7.6v10.7H121.3z M134,386.9
		c-1.3,2.7-3.7,6.3-7.1,10.8l-0.8-0.5c1.9-4.2,3.4-7.8,4.3-10.7c0.9-2.9,1.9-6.7,2.8-11.4c1.4,0.5,2.7,1,3.8,1.4
		c1.1,0.5,1.8,0.8,2,1c0.2,0.2,0.4,0.4,0.4,0.6c0,0.2-0.3,0.4-0.8,0.5c-0.5,0.1-0.9,0.3-1,0.6c-0.2,0.2-0.5,1.1-1.1,2.4
		c-0.6,1.4-1.1,2.6-1.7,3.8h6.3l1.3-1.9c0.3-0.4,0.6-0.6,0.9-0.6c0.3,0,1.1,0.5,2.5,1.5c1.4,1,2.1,1.7,2.1,2.1c0,0.4-0.7,0.9-2,1.4
		c-0.2,9.7-0.4,16.1-0.5,19.2c-0.1,3.1-0.3,5.1-0.5,6.2c-0.2,1.1-0.6,2.1-1.2,3c-0.6,0.9-1.6,1.6-2.8,2.2c-1.3,0.6-2.2,0.9-2.7,0.9
		c-0.2,0-0.4-0.2-0.6-0.7c-0.2-0.9-0.6-1.6-0.9-2.1c-0.4-0.5-1-1-1.9-1.4c-0.9-0.4-2.3-0.9-4.1-1.4l0.2-1c3.7,0.5,6,0.8,7,0.8
		c1,0,1.6-0.1,2-0.3c0.4-0.2,0.6-0.5,0.7-1c0.1-0.5,0.2-1.5,0.4-3.2c0.1-1.7,0.2-4.5,0.4-8.3c0.1-3.8,0.2-8.4,0.2-13.8H134z
		 M130.8,395.4c2.2,1.6,3.8,2.8,4.7,3.6c0.9,0.8,1.4,1.4,1.7,1.8c0.3,0.4,0.4,0.9,0.4,1.5c0,1.1-0.4,2.1-1.1,3
		c-0.7,0.9-1.3,1.3-1.8,1.3c-0.5,0-0.8-0.6-1-1.9c-0.2-1.3-0.6-2.7-1.2-4.3c-0.6-1.6-1.4-3-2.3-4.3L130.8,395.4z"/>
	<path class="st0" d="M162.8,402.3h-2.7v1.3c0,0.3-0.1,0.5-0.2,0.6c-0.1,0.1-0.5,0.3-1,0.5c-0.6,0.3-1.3,0.5-2.2,0.7
		c-0.2,0-0.4-0.1-0.4-0.4l0.1-2.8c0-0.8,0-1.8,0-3.1v-7.7c0-1.3,0-2.6-0.1-4c1.6,0.5,3.1,1.1,4.3,1.7h2.5v-4.6h-5.6
		c-0.8,0-1.5,0.1-2,0.3l-1.2-2.1c0.7,0.2,1.4,0.2,2.3,0.2h6.4v-3c0-1.6,0-2.9-0.1-4.2c3.7,0.8,5.6,1.6,5.6,2.2
		c0,0.3-0.6,0.7-1.8,1.1v3.9h3.5l1.3-1.7c0.3-0.5,0.7-0.7,0.9-0.7c0.3,0,0.9,0.5,2,1.5c1,1,1.5,1.7,1.5,2c0,0.3-0.3,0.5-0.9,0.5
		h-8.4v4.6h2.4l0.9-1.2c0.2-0.3,0.5-0.5,0.7-0.5c0.2,0,0.9,0.4,2.1,1.2c1.2,0.8,1.8,1.3,1.8,1.6c0,0.3-0.5,0.7-1.5,1.3v5.8
		c0,1.4,0,2.5,0.1,3.4c0,0.9,0.1,1.4,0.1,1.6c0,0.2-0.1,0.3-0.4,0.5c-0.3,0.2-0.8,0.4-1.7,0.7c-0.8,0.3-1.3,0.5-1.6,0.5
		c-0.2,0-0.3-0.2-0.3-0.7v-1.1h-2.8v4.8h3.5l1.3-1.7c0.3-0.5,0.6-0.7,0.9-0.7c0.3,0,0.9,0.5,2,1.5c1.1,1,1.6,1.7,1.6,2
		c0,0.3-0.3,0.5-1,0.5h-8.4v8.4c0,0.3,0,0.5-0.1,0.6c-0.1,0.1-0.4,0.2-1,0.5c-0.6,0.3-1.2,0.5-1.7,0.7c-0.6,0.2-0.9,0.3-1.1,0.3
		c-0.1,0-0.2-0.1-0.2-0.4l0.1-2.2c0.1-1.5,0.1-2.9,0.1-4.2v-3.6h-7.4c-0.8,0-1.5,0.1-2,0.3l-0.8-2.1c0.7,0.2,1.4,0.2,2.3,0.2h7.9
		V402.3z M160.1,394.9h9.4v-4.2h-9.4V394.9z M169.5,396.3h-9.4v4.3h9.4V396.3z M182.7,380.2h5.1l1-1.5c0.3-0.5,0.6-0.7,0.9-0.7
		c0.3,0,1.1,0.5,2.5,1.4c1.3,0.9,2,1.6,2,1.8s-0.6,0.7-1.8,1.4v31.2c0,1.2-0.1,2-0.4,2.6s-0.9,1.2-1.9,1.8c-1,0.7-1.7,1-2,1
		c-0.3,0-0.6-0.2-0.7-0.7c-0.3-1.1-0.9-1.9-1.7-2.4c-0.8-0.5-2.2-1.2-4.5-2l0.2-1.1c2.5,0.5,4.2,0.8,4.9,0.8s1.3-0.1,1.6-0.2
		c0.3-0.2,0.4-0.5,0.4-1.1v-11.8h-6.7c-0.3,4.4-1.4,7.9-3.3,10.5c-1.9,2.7-5,5.3-9.4,8l-0.5-0.9c3.3-3,5.6-5.5,6.7-7.4
		c1.2-1.9,1.9-4.3,2.3-7c0.4-2.8,0.6-6,0.7-9.7s0.1-9.1,0.1-16.2C180,378.7,181.5,379.4,182.7,380.2z M188.3,391.3H182l-0.3,7.8h6.6
		V391.3z M182,389.7h6.3v-7.8h-6.1C182.2,385.3,182.1,387.9,182,389.7z"/>
	<path class="st0" d="M202,391.7c-0.4,0.4-1.2,1.2-2.2,2.1l-0.7-0.5c2.3-3.1,4.1-5.9,5.3-8.2c1.2-2.4,2.3-5.5,3.4-9.2
		c2.2,0.7,3.5,1.3,4.1,1.6c0.5,0.3,0.8,0.6,0.8,0.7c0,0.2-0.2,0.4-0.7,0.5c-0.5,0.1-0.9,0.6-1.4,1.5c-0.5,0.9-0.9,1.6-1.2,2.1h3.9
		l0.6-1.2c0.1-0.2,0.3-0.4,0.4-0.4c0.2,0,1.1,0.4,2.6,1.3c1.5,0.9,2.2,1.4,2.2,1.7c0,0.3-0.3,0.5-0.9,0.5c-0.6,0.1-1.1,0.2-1.4,0.5
		c-0.4,0.2-1,0.9-2.1,2c-1,1.1-1.9,2.1-2.6,3.1h3.1l0.7-1.4c0.1-0.2,0.3-0.4,0.5-0.4s1,0.4,2.2,1.1c1.2,0.7,1.9,1.2,1.9,1.5
		c0,0.3-0.5,0.7-1.4,1.1v9.4c0,1.4,0,2.4,0,2.9l0,1.5c0,0.2-0.1,0.4-0.2,0.5c-0.1,0.1-0.6,0.3-1.5,0.6c-0.9,0.3-1.4,0.4-1.6,0.4
		c-0.2,0-0.3-0.2-0.3-0.6v-1.1h-10v0.7c0,0.3,0,0.5-0.1,0.6c-0.1,0.1-0.3,0.3-0.7,0.5s-0.8,0.4-1.4,0.6c-0.6,0.2-1,0.3-1.2,0.3
		c-0.2,0-0.3-0.2-0.3-0.6c0.1-1.5,0.2-3,0.2-4.6V391.7z M220.9,410.7l-12.5,4.1c-2.4,0.7-4.1,1.4-5.3,2.1c-0.2,0.1-0.4,0.2-0.6,0.2
		c-0.2,0-0.4-0.2-0.6-0.6l-1.9-3.5c4.2-0.5,11.1-1.7,20.7-3.4L220.9,410.7z M208.4,383.7c-1.4,2.1-2.7,3.8-4,5.3
		c0.2,0.1,0.7,0.4,1.4,0.8h3.9c1.1-1.8,2.1-3.9,3-6.1H208.4z M208.7,396.8v-5.6h-3.3v5.6H208.7z M208.7,404.2v-6.2h-3.3v6.2H208.7z
		 M212.1,391.2v5.6h3.4v-5.6H212.1z M212.1,398.1v6.2h3.4v-6.2H212.1z M229.9,386.1c1.8-3.5,3.3-7.3,4.2-11.2c1,0.3,2,0.7,2.9,1.1
		c0.9,0.4,1.5,0.7,1.8,0.8c0.2,0.2,0.4,0.3,0.4,0.5c0,0.2-0.2,0.3-0.6,0.5c-0.4,0.1-1.1,0.8-1.9,1.8c-0.9,1.1-2.5,3.3-4.8,6.5h3.6
		l1.6-2.5c0.3-0.4,0.5-0.6,0.7-0.6c0.4,0,1.2,0.6,2.5,1.8c1.3,1.2,2,1.9,2,2.2c0,0.3-0.3,0.4-0.8,0.4h-10.3v7.9h3l1.5-2.2
		c0.2-0.2,0.4-0.4,0.6-0.4s0.7,0.3,1.4,0.9c0.7,0.6,1.3,1.1,1.8,1.6c0.5,0.4,0.8,0.8,0.8,1.1c0,0.3-0.2,0.4-0.7,0.4h-8.4v8.1h4.7
		l1.5-2.7c0.2-0.3,0.4-0.5,0.6-0.5c0.4,0,1.3,0.6,2.8,1.9s2.2,2,2.2,2.2s-0.3,0.4-0.9,0.4h-10.9v6.6l0.1,4.8c0,0.2,0,0.4-0.1,0.5
		c0,0.1-0.4,0.3-1,0.6s-1.2,0.6-1.7,0.8c-0.5,0.2-0.9,0.3-1.1,0.3c-0.2,0-0.3-0.2-0.3-0.5l0.1-1.9c0-1.3,0-2.7,0-4.3v-6.9h-5.6
		c-0.8,0-1.5,0.1-2,0.3l-0.8-1.9c0.7,0.2,1.4,0.2,2.3,0.2h6.1v-8.1h-4.1c-0.8,0-1.5,0.1-2,0.3l-0.8-2c0.7,0.2,1.4,0.2,2.3,0.2h4.6
		v-7.9h-5.6c-0.8,0-1.5,0.1-2,0.3l-0.8-1.9c0.7,0.2,1.4,0.2,2.3,0.2H229.9z M222.7,375.5c2.1,1.1,3.6,2.1,4.6,3
		c1,0.9,1.5,1.8,1.5,2.8c0,0.9-0.4,1.8-1.1,2.5c-0.7,0.7-1.4,1.1-2,1.1c-0.3,0-0.6-0.1-0.7-0.3c-0.1-0.2-0.2-0.6-0.3-1.4
		c-0.2-2.6-1.1-5-2.8-7.1L222.7,375.5z"/>
	<path class="st0" d="M258.3,382.7H280l2.1-3c0.2-0.4,0.5-0.6,0.7-0.6s0.6,0.2,1.1,0.7c0.6,0.4,1.3,1,2.1,1.7
		c0.8,0.7,1.4,1.2,1.7,1.5s0.4,0.6,0.4,0.7c0,0.3-0.2,0.5-0.7,0.5h-16v9.1h5.3l1.9-2.8c0.2-0.3,0.5-0.5,0.6-0.5s0.5,0.2,1.1,0.6
		c0.5,0.4,1.2,0.9,1.9,1.6c0.7,0.7,1.2,1.1,1.3,1.3c0.2,0.2,0.2,0.5,0.2,0.7c0,0.5-0.2,0.7-0.7,0.7h-11.7v9.9h11l2.1-2.8
		c0.2-0.3,0.5-0.4,0.8-0.4c0.3,0,1.2,0.7,2.6,2c1.4,1.3,2.1,2.1,2.1,2.4c0,0.3-0.3,0.4-0.8,0.4h-17.9c0,3.3,0,5.7,0,7.2l0.1,4.2
		c0,0.2-0.1,0.4-0.2,0.6c-0.2,0.2-0.8,0.4-1.9,0.8c-1.1,0.4-1.8,0.6-2,0.6c-0.2,0-0.4-0.2-0.4-0.7l0.1-4.7c0-1.7,0-4.4,0-7.9h-18.4
		c-0.8,0-1.5,0.1-2,0.3l-0.8-2.1c0.7,0.2,1.4,0.2,2.3,0.2h6.6v-9.2c0-2.3,0-3.7-0.1-4.2c1.8,0.5,3.4,1.1,4.8,1.8h7.6v-9.1h-10
		c-1.7,2.8-3.4,5-4.8,6.6c-1.5,1.6-3.4,3.4-5.8,5.3l-0.7-0.7c4.9-5.3,8.6-12.2,10.9-20.6c2.5,1,4.1,1.7,4.8,2.2s1,0.8,1,1.1
		c0,0.3-0.3,0.5-0.8,0.5c-0.5,0.1-1,0.3-1.3,0.7C260.2,379.8,259.4,380.9,258.3,382.7z M267.3,395h-8.2v9.9h8.2V395z"/>
	<path class="st0" d="M298.9,385.6h-3.1c-1.1,0-1.8,0.1-2.3,0.3l-0.8-2.1c0.7,0.2,1.4,0.2,2.3,0.2h4.3c0.6-2.3,1.1-4.8,1.5-7.6
		c3.7,1,5.6,1.8,5.6,2.2c0,0.2-0.3,0.4-0.9,0.9c-0.6,0.4-1,0.8-1.1,1.3c-0.1,0.4-0.5,1.5-1.1,3.2h4.6l1.6-2.4
		c0.2-0.3,0.5-0.5,0.6-0.5c0.3,0,1.1,0.6,2.5,1.7c1.4,1.1,2,1.9,2,2.2c0,0.3-0.3,0.5-1,0.5h-10.8c-1.2,3.5-2.6,7.4-4.3,11.7h4.4
		v-3.7c0-1.3,0-2.6-0.1-3.9c1.4,0.2,2.5,0.4,3.5,0.6c0.9,0.2,1.5,0.3,1.6,0.4c0.1,0.1,0.2,0.2,0.2,0.4c0,0.4-0.5,0.8-1.5,1.3v4.9
		h0.8l1.8-2.1c0.2-0.3,0.4-0.4,0.7-0.4c0.2,0,0.5,0.1,0.7,0.3c0.2,0.2,0.6,0.6,1.2,1.1c0.5,0.6,1,1.2,1.3,1.8
		c6-5.1,10-10.5,12.1-16.1h-9.5c-0.8,0-1.5,0.1-2,0.3l-0.8-2c0.7,0.2,1.4,0.2,2.3,0.2h9.9l1.5-1.9c0.2-0.3,0.4-0.4,0.7-0.4
		c0.2,0,0.8,0.3,1.7,1c1,0.7,1.7,1.3,2.2,1.7c0.5,0.5,0.8,0.8,0.8,1c0,0.3-0.3,0.5-1,0.6c-0.7,0.1-1.2,0.4-1.5,0.7
		c-0.3,0.3-0.9,1.1-1.6,2.2c-0.7,1.2-1.5,2.3-2.5,3.5c3.2,1.3,5.4,2.4,6.7,3c1.3,0.7,2.1,1.3,2.4,1.8c0.3,0.5,0.5,1.2,0.5,2.1
		c0,0.9-0.2,1.6-0.7,2.3c-0.5,0.7-0.9,1-1.4,1s-0.9-0.5-1.4-1.4c-1.5-2.8-3.8-5.5-6.9-8c-1.6,2-3.2,3.8-5,5.3
		c-1.8,1.5-4.3,3.1-7.4,4.9l-0.6-0.8l0.5-0.4h-5.6v5.4l5.8-1.5l0.4,0.9l-6.2,2.7v11.2c0,0.3-0.2,0.6-0.5,0.9
		c-0.3,0.3-0.8,0.6-1.5,0.9c-0.7,0.3-1.2,0.5-1.4,0.5s-0.4-0.2-0.4-0.7l0-2.1c0.1-2.4,0.1-5.4,0.1-9.1c-3.7,1.7-5.7,2.7-6.2,3
		c-0.5,0.3-0.7,0.4-0.9,0.4c-0.4,0-1.2-1.4-2.4-4.1c2.4-0.4,5.6-1.1,9.4-2.1v-6.3h-4.8l-0.7,1c-0.2,0.2-0.3,0.3-0.5,0.3
		c-0.1,0-0.4-0.2-0.8-0.6c-0.5-0.4-1.2-1-2.2-1.8c0.7-0.6,1.1-1.1,1.4-1.6c0.3-0.5,0.8-1.8,1.5-3.9
		C297.6,390,298.3,387.8,298.9,385.6z M320.2,402.7h-4.4c-0.8,0-1.5,0.1-2,0.3L313,401c0.7,0.2,1.4,0.2,2.3,0.2h10.8l1.4-2.2
		c0.3-0.5,0.6-0.7,0.8-0.7c0.2,0,1.1,0.6,2.6,1.8c1.5,1.2,2.3,1.9,2.3,2.2c0,0.3-0.4,0.5-1.3,0.5h-7.6V415h3.7l1.9-2.7
		c0.2-0.3,0.4-0.5,0.6-0.5c0.2,0,1.2,0.6,2.8,1.9s2.4,2,2.4,2.4c0,0.3-0.4,0.5-1.2,0.5h-22.9c-0.8,0-1.5,0.1-2,0.3l-0.8-2.1
		c0.7,0.2,1.4,0.2,2.3,0.2h8.9V402.7z"/>
	<path class="st0" d="M361.1,383.9c-0.8,10.4-2.6,18-5.2,22.8c-2.6,4.8-8,9.1-16.3,13.1l-0.4-0.8c6.8-4.3,11.4-9.3,13.8-15.2
		c2.4-5.9,3.8-14.9,4.3-27.2c1.4,0.3,2.8,0.7,4,1.1c1.2,0.4,1.9,0.7,2.1,0.8s0.3,0.3,0.3,0.5c0,0.2-0.3,0.4-0.8,0.6
		c-0.5,0.2-0.9,0.4-1.1,0.7c1.3,9.5,3.7,17.1,7.2,22.7c3.5,5.6,8.2,9.6,14.1,11.8l-0.1,0.9c-0.9-0.1-1.7-0.1-2.5-0.1
		c-0.8,0-1.5,0.1-2.1,0.4c-0.6,0.3-1.3,0.8-2.1,1.6c-0.2,0.2-0.4,0.3-0.5,0.3c-0.4,0-1.9-1.6-4.7-4.7s-4.9-6.8-6.4-10.9
		C363,398.3,361.8,392.1,361.1,383.9z"/>
</g>
</svg>
