<?xml version="1.0" encoding="utf-8"?>
<!-- Generator: Adobe Illustrator 19.1.0, SVG Export Plug-In . SVG Version: 6.00 Build 0)  -->
<svg version="1.1" id="Layer_1" xmlns="http://www.w3.org/2000/svg" xmlns:xlink="http://www.w3.org/1999/xlink" x="0px" y="0px"
	 viewBox="-185 277 240 240" style="enable-background:new -185 277 240 240;" xml:space="preserve">
<style type="text/css">
	.st0{display:none;fill:#FFFFFF;}
	.st1{fill:#FFFFFF;}
</style>
<path class="st0" d="M55,322.6c-8.8,3.9-18.3,6.6-28.3,7.8c10.2-6.1,18-15.7,21.6-27.2c-9.5,5.6-20.1,9.7-31.3,11.9
	c-9-9.6-21.8-15.5-35.9-15.5c-27.2,0-49.2,22-49.2,49.2c0,3.9,0.4,7.6,1.3,11.2c-40.9-2.1-77.2-21.7-101.5-51.5
	c-4.2,7.3-6.7,15.7-6.7,24.7c0,17.1,8.7,32.2,21.9,41c-8.1-0.3-15.7-2.5-22.3-6.2c0,0.2,0,0.4,0,0.6c0,23.9,17,43.8,39.5,48.3
	c-4.1,1.1-8.5,1.7-13,1.7c-3.2,0-6.3-0.3-9.3-0.9c6.3,19.6,24.5,33.8,46,34.2c-16.9,13.2-38.1,21.1-61.2,21.1c-4,0-7.9-0.2-11.7-0.7
	c21.8,14,47.7,22.1,75.5,22.1c90.6,0,140.1-75,140.1-140.1c0-2.1,0-4.3-0.1-6.4C40.1,341.1,48.4,332.4,55,322.6z"/>
<path class="st0" d="M41.8,277h-213.6c-7.3,0-13.2,5.9-13.2,13.2v213.5c0,7.3,5.9,13.2,13.2,13.2h114.9V424h-31.2v-36.2h31.3v-26.7
	c0-31,18.9-47.9,46.6-47.9c13.2,0,24.6,1,27.9,1.4V347H-1.5c-15,0-18,7.1-18,17.6v23.1h35.9l-4.7,36.2h-31.2V517h61.2
	c7.3,0,13.2-5.9,13.2-13.2V290.2C55,282.9,49.1,277,41.8,277z"/>
<g>
	<path class="st1" d="M-4.7,393.4c-3.4-1-5.7-1.7-3.9-6.1c3.8-9.6,4.2-18,0.1-23.9c-7.8-11.1-29.1-10.5-53.5-0.3
		c0,0-7.7,3.4-5.7-2.7c3.8-12.1,3.2-22.2-2.7-28c-13.3-13.4-48.6,0.4-78.8,30.6c-22.7,22.6-35.8,46.6-35.8,67.4
		c0,39.7,50.9,63.8,100.7,63.8c65.3,0,108.7-37.9,108.7-68C24.4,408,9.1,397.7-4.7,393.4z M-84.2,480c-39.7,3.9-74-14-76.6-40.1
		c-2.6-26.1,27.5-50.4,67.3-54.3c39.7-3.9,74,14,76.6,40.1C-14.3,451.7-44.4,476.1-84.2,480z"/>
	<path class="st1" d="M38.6,320.8c-15.8-17.5-39-24.1-60.5-19.6l0,0c-5,1.1-8.1,5.9-7.1,10.9c1.1,5,5.9,8.1,10.9,7.1
		c15.3-3.2,31.8,1.5,43,13.9s14.2,29.3,9.4,44.2l0,0c-1.6,4.8,1.1,10,5.9,11.6c4.8,1.6,10-1.1,11.6-5.9l0,0
		C58.7,362,54.4,338.2,38.6,320.8"/>
	<path class="st1" d="M14.4,342.6c-7.7-8.5-19-11.7-29.5-9.5c-4.3,0.9-7,5.1-6.1,9.4s5.1,7,9.4,6.1l0,0c5.1-1.1,10.7,0.5,14.4,4.6
		c3.8,4.2,4.8,9.8,3.2,14.8l0,0c-1.3,4.2,0.9,8.6,5.1,10c4.2,1.3,8.6-0.9,10-5.1C24.2,362.7,22.1,351.1,14.4,342.6"/>
	<g>
		<path class="st1" d="M-80.2,405.6c-18.9-4.9-40.3,4.5-48.5,21.2c-8.4,17-0.3,35.9,18.8,42c19.8,6.4,43.1-3.4,51.2-21.7
			C-50.7,429.1-60.6,410.7-80.2,405.6z M-94.6,449c-3.8,6.1-12.1,8.8-18.3,6c-6.1-2.8-7.9-9.9-4.1-15.9s11.7-8.6,17.9-6
			C-92.9,435.7-90.9,442.8-94.6,449z M-82,432.7c-1.4,2.4-4.5,3.5-6.9,2.5s-3.1-3.6-1.8-6c1.4-2.3,4.3-3.5,6.7-2.5
			C-81.5,427.7-80.7,430.3-82,432.7z"/>
	</g>
</g>
</svg>
