<?xml version="1.0" encoding="utf-8"?>
<!-- Generator: Adobe Illustrator 19.1.0, SVG Export Plug-In . SVG Version: 6.00 Build 0)  -->
<svg version="1.1" id="Layer_1" xmlns="http://www.w3.org/2000/svg" xmlns:xlink="http://www.w3.org/1999/xlink" x="0px" y="0px"
	 viewBox="-185 277 240 240" style="enable-background:new -185 277 240 240;" xml:space="preserve">
<style type="text/css">
	.st0{fill:#FFFFFF;}
</style>
<g>
	<path class="st0" d="M-80.9,385.1c-26.1,28-14.8,60.2-14.8,60.2s-2.5,0-3.4,0c-11.2,0-21.9-1.9-31.7-5.3c0,0-20.1,12.1-26.7,16.2
		c-1.1,0.6-1.8,0.6-2.5,0.3c-0.5-0.3-0.9-1.2-0.5-2.3c1.8-6,7.3-25.7,7.3-25.7c-19.5-13.7-31.8-34.6-31.8-58.1
		c0-41.4,38.4-75,85.8-75c43.3,0,79.2,27.7,85,64.2C-14.1,359.6-52,354.7-80.9,385.1z M-65.1,335c-6,0-10.9,4.9-10.9,10.9
		s4.9,10.9,10.9,10.9s10.9-4.9,10.9-10.9S-59.1,335-65.1,335z M-132.4,335c-6,0-10.9,4.9-10.9,10.9s4.9,10.9,10.9,10.9
		c6,0,11-4.8,11-10.9S-126.3,335-132.4,335z"/>
	<path class="st0" d="M-18.8,365.3c40.7,0,73.8,28.3,73.8,63.2c0,19-9.8,36.1-25.3,47.6c0,0,4.9,14.8,6.6,20
		c0.1,0.3,0.2,0.5,0.2,0.8c0,0.7-0.4,1.3-0.6,1.4c-0.5,0.4-1.2,0.4-1.9,0c-4.7-2.7-21.5-12.5-21.5-12.5c-9.5,3.8-20,5.9-31.2,5.9
		c-40.7,0-73.8-28.3-73.8-63.2S-59.5,365.3-18.8,365.3z M-45.4,394.2c-5.4,0-9.8,4.4-9.8,9.7c0,5.4,4.4,9.7,9.8,9.7s9.8-4.4,9.8-9.7
		C-35.6,398.6-39.9,394.2-45.4,394.2z M8.1,394.2c-5.4,0-9.8,4.4-9.8,9.7c0,5.4,4.4,9.7,9.8,9.7c5.4,0,9.8-4.4,9.8-9.7
		C17.9,398.6,13.6,394.2,8.1,394.2z"/>
</g>
</svg>
