<?xml version="1.0" encoding="utf-8"?>
<!-- Generator: Adobe Illustrator 19.0.1, SVG Export Plug-In . SVG Version: 6.00 Build 0)  -->
<svg version="1.1" id="Layer_1" xmlns="http://www.w3.org/2000/svg" xmlns:xlink="http://www.w3.org/1999/xlink" x="0px" y="0px"
	 viewBox="0 0 44 44" style="enable-background:new 0 0 44 44;" xml:space="preserve">
<style type="text/css">
	.st0{fill:#010101;}
</style>
<path class="st0" d="M-18.1,41.1H-56c-1.1,0-2-0.9-2-2V23.8c0-0.5,0.2-1,0.6-1.4l18.2-18.2c0.7-0.7,1.9-0.8,2.7-0.1l19.7,16.7
	c0.4,0.4,0.7,0.9,0.7,1.5v16.7C-16.1,40.2-17,41.1-18.1,41.1z M-54,37.1h33.9V23.3L-37.7,8.3L-54,24.6V37.1z"/>
<path class="st0" d="M22,41.1c-10.8,0-19.5-8.8-19.5-19.5S11.2,2,22,2c10.8,0,19.5,8.8,19.5,19.5S32.8,41.1,22,41.1z M22,6
	C13.4,6,6.5,13,6.5,21.5s7,15.5,15.5,15.5s15.5-7,15.5-15.5S30.6,6,22,6z"/>
<circle class="st0" cx="22.1" cy="21.5" r="3.6"/>
</svg>
