<?xml version="1.0" encoding="UTF-8" standalone="no"?>
<svg width="24px" height="24px" viewBox="0 0 24 24" version="1.1" xmlns="http://www.w3.org/2000/svg" xmlns:xlink="http://www.w3.org/1999/xlink">
    <!-- Generator: Sketch 3.7.1 (28215) - http://www.bohemiancoding.com/sketch -->
    <title>Map</title>
    <desc>Created with Sketch.</desc>
    <defs>
        <path d="M0,-8.03222223e-15 L7.56351423,3.56539809 L12,-3.81726295e-09 C12,-3.81726295e-09 17.1399507,3.56539809 18.4803638,3.56539809 C20.3277539,3.56539809 24,-8.03222223e-15 24,-8.03222223e-15 L24,19.826087 L18.4803638,23.1147129 L12,19.826087 L5.55922556,23.1147129 L0,19.826087 L0,-8.03222223e-15 Z" id="path-1"></path>
        <mask id="mask-2" maskContentUnits="userSpaceOnUse" maskUnits="objectBoundingBox" x="0" y="0" width="24" height="23.1147129" fill="white">
            <use xlink:href="#path-1"></use>
        </mask>
    </defs>
    <g id="Symbols" stroke="none" stroke-width="1" fill="none" fill-rule="evenodd">
        <g id="Event-info-join" transform="translate(-270.000000, -147.000000)">
            <g id="icon">
                <g transform="translate(270.000000, 73.000000)">
                    <g id="Map" transform="translate(0.000000, 74.000000)">
                        <path d="M17.5,9.91304348 L23.5,7.82608696" id="Line" stroke="#272727" stroke-linecap="square"></path>
                        <use id="Rectangle-42" stroke="#333333" mask="url(#mask-2)" stroke-width="2" xlink:href="#path-1"></use>
                        <path d="M0.5,10.9565217 C0.5,10.9565217 0.5,10.9565217 5.046875,12.0491616 C5.8897393,12.2517067 5.046875,13.8964495 7.15913782,13.8964494 C9.27140064,13.8964493 9.4440528,16.201134 12.2724172,16.2011342 C17.2457199,16.2011346 18.5,21.3913043 18.5,21.3913043 C18.5,21.3913043 16.1266419,21.0148641 12.2724171,19.0464358 C10.4785674,18.1302816 6.15913773,22.6598889 6.15913773,22.6598889 L0.5,19.0464358" id="Line" stroke="#333333" stroke-linecap="square" fill="#333333"></path>
                        <polyline id="Line" stroke="#333333" stroke-linecap="square" points="1.48779234 6.55032873 7.03936531 9.9485953 13.1674562 7.82608696 22.9877923 14.7910635"></polyline>
                    </g>
                </g>
            </g>
        </g>
    </g>
</svg>