<?xml version="1.0" encoding="UTF-8" standalone="no"?>
<svg width="70px" height="70px" viewBox="0 0 70 70" version="1.1" xmlns="http://www.w3.org/2000/svg" xmlns:xlink="http://www.w3.org/1999/xlink">
    <!-- Generator: Sketch 3.7.1 (28215) - http://www.bohemiancoding.com/sketch -->
    <title>Event Icon</title>
    <desc>Created with Sketch.</desc>
    <defs></defs>
    <g id="Symbols" stroke="none" stroke-width="1" fill="none" fill-rule="evenodd">
        <g id="Navi-bar-Event" transform="translate(-435.000000, 0.000000)" fill="#000000">
            <g id="Event-Icon">
                <g transform="translate(435.000000, 0.000000)">
                    <g id="Group">
                        <path d="M35,16.8065268 L47.7155963,16.8065268 C48.4541284,16.8065268 49,17.2307692 49.1123853,17.8997669 C49.2408257,18.6993007 48.646789,19.4172494 47.8279817,19.4172494 C46.2224771,19.4335664 44.6169725,19.4172494 43.0114679,19.4172494 L22.3486239,19.4172494 C21.8188073,19.4172494 21.3692661,19.2540793 21.0802752,18.7972028 C20.5504587,17.9324009 21.1444954,16.8228438 22.1720183,16.8065268 C23.5527523,16.7902098 24.9334862,16.8065268 26.2981651,16.8065268 L35,16.8065268 L35,16.8065268 L35,16.8065268 Z" id="Shape"></path>
                        <path d="M35,25.2913753 L47.7155963,25.2913753 C48.4541284,25.2913753 49,25.7156177 49.1123853,26.3846154 C49.2408257,27.1841492 48.646789,27.9020979 47.8279817,27.9020979 C46.2224771,27.9184149 44.6169725,27.9020979 43.0114679,27.9020979 L22.3486239,27.9020979 C21.8188073,27.9020979 21.3692661,27.7389277 21.0802752,27.2820513 C20.5504587,26.4172494 21.1444954,25.3076923 22.1720183,25.2913753 C23.5527523,25.2750583 24.9334862,25.2913753 26.2981651,25.2913753 L35,25.2913753 L35,25.2913753 L35,25.2913753 Z" id="Shape"></path>
                        <path d="M21.5779817,62.3962704 L21.5779817,55.5594406 C21.5779817,55.1515152 21.9954128,54.8741259 22.6536697,54.8088578 C23.440367,54.7435897 24.146789,55.0536131 24.146789,55.4941725 C24.162844,56.3589744 24.146789,57.2237762 24.146789,58.0885781 L24.146789,69.1841492 C24.146789,69.4778555 23.9862385,69.7062937 23.5366972,69.8694639 C22.6857798,70.1631702 21.5940367,69.8368298 21.5779817,69.2820513 C21.5619266,68.5477855 21.5779817,67.7972028 21.5779817,67.0629371 L21.5779817,62.3962704 L21.5779817,62.3962704 L21.5779817,62.3962704 Z" id="Shape"></path>
                        <path d="M35,60.5361305 L45.9174312,60.5361305 C46.559633,60.5361305 47.0252294,60.960373 47.1055046,61.6293706 C47.2178899,62.4289044 46.7041284,63.1468531 45.9977064,63.1468531 C44.6169725,63.1631702 43.2362385,63.1468531 41.8555046,63.1468531 L24.1146789,63.1468531 C23.6490826,63.1468531 23.2798165,62.983683 23.0229358,62.5268065 C22.5573394,61.6620047 23.0711009,60.5524476 23.9541284,60.5361305 C25.1422018,60.5198135 26.3142202,60.5361305 27.5022936,60.5361305 L35,60.5361305 L35,60.5361305 L35,60.5361305 Z" id="Shape"></path>
                        <path d="M65.9406761,22.9254085 C65.9406761,22.8927744 65.8738532,8.58275058 65.8738532,8.55011655 C65.8256881,7.6037296 65.8256881,7.6037296 64.8944954,7.6037296 L7.89908257,7.6037296 L4.6559633,7.6037296 C4.15825688,7.6037296 4.14220183,7.62004662 4.14220183,8.14219114 L4.14220183,27.1515152 L4.14220183,53.04662 C4.14220183,54.1072261 4.14220183,54.1072261 5.18577982,54.1072261 L65.3440367,54.1072261 C65.8738532,54.1072261 65.8738532,54.1072261 65.8738532,53.5361305 C65.8599425,44.7707399 65.9203027,28.2146666 65.9366741,23.9485888 C65.9391978,23.2909853 65.9406761,22.9254085 65.9406761,22.9254085 L69.8555016,22.9254085 C69.8555016,22.9254085 69.8715596,27.4615385 69.8715596,29.7132867 C69.8715596,38.2307692 69.8555046,46.7319347 69.8876147,55.2494172 C69.8876147,56.6363636 69.0527523,57.7785548 67.8165138,58.0885781 C67.5917431,58.1375291 67.3669725,58.1538462 67.1422018,58.1538462 L35.0321101,58.1538462 L3.13073394,58.1538462 C2.47247706,58.1538462 1.84633028,58.0559441 1.30045872,57.6643357 C0.658256881,57.2074592 0.208715596,56.5874126 0.19266055,55.7715618 C0.144495413,54.3030303 0.144495413,52.8344988 0.144495413,51.3659674 L0.144495413,22.3706294 C0.144495413,17.0512821 0.160550459,11.7319347 0.144495413,6.42890443 C0.144495413,4.66666667 1.44495413,3.52447552 3.03440367,3.52447552 C9.95412844,3.54079254 16.8738532,3.52447552 23.7775229,3.52447552 C24.4197248,3.52447552 24.4036697,3.52447552 24.4197248,2.87179487 C24.4357798,2.34965035 24.3876147,1.79487179 24.5321101,1.30536131 C24.8050459,0.358974359 25.6720183,-0.0979020979 26.6513761,0.048951049 C27.5344037,0.179487179 28.1766055,0.913752914 28.2408257,1.87645688 C28.2729358,2.26806527 28.2729358,2.65967366 28.2568807,3.05128205 C28.2408257,3.41025641 28.3692661,3.52447552 28.7224771,3.52447552 C30.9220183,3.50815851 33.1055046,3.52447552 35.3050459,3.52447552 C37.2958716,3.52447552 39.2866972,3.50815851 41.2775229,3.52447552 C41.6949541,3.52447552 41.7912844,3.39393939 41.7912844,2.98601399 C41.7912844,2.3986014 41.7752294,1.77855478 41.9357798,1.22377622 C42.2087156,0.293706294 43.1077982,-0.130536131 44.1353211,0.0652680653 C44.9220183,0.212121212 45.5802752,1.01165501 45.5963303,1.87645688 C45.6123853,2.25174825 45.6123853,2.64335664 45.5963303,3.01864802 C45.5642202,3.41025641 45.6926606,3.54079254 46.0940367,3.54079254 C47.940367,3.52447552 49.7866972,3.54079254 51.6330275,3.52447552 C56.6582569,3.52447552 61.6995413,3.50815851 66.7247706,3.54079254 C67.2866972,3.54079254 67.8807339,3.63869464 68.3944954,3.85081585 C69.3256881,4.25874126 69.8073394,5.07459207 69.8555046,6.1025641 C69.8876147,6.88578089 69.8715596,22.1421911 69.8555046,22.9254079 L67.8165154,22.9254085" id="Shape"></path>
                        <path d="M45.853211,62.3310023 L45.853211,55.4452214 C45.853211,55.037296 46.2706422,54.7435897 46.9288991,54.6946387 C47.7155963,54.6293706 48.4220183,54.955711 48.4220183,55.3962704 C48.4380734,56.2610723 48.4220183,57.1421911 48.4220183,58.006993 L48.4220183,69.2004662 C48.4220183,69.4941725 48.2614679,69.7389277 47.8119266,69.8857809 C46.9610092,70.1794872 45.8692661,69.8531469 45.853211,69.2983683 C45.837156,68.5477855 45.853211,67.8135198 45.853211,67.0629371 L45.853211,62.3310023 L45.853211,62.3310023 L45.853211,62.3310023 Z" id="Shape"></path>
                    </g>
                </g>
            </g>
        </g>
    </g>
</svg>