<?xml version="1.0" encoding="UTF-8" standalone="no"?>
<svg width="20px" height="24px" viewBox="0 0 20 24" version="1.1" xmlns="http://www.w3.org/2000/svg" xmlns:xlink="http://www.w3.org/1999/xlink">
    <!-- Generator: Sketch 3.7.1 (28215) - http://www.bohemiancoding.com/sketch -->
    <title>Venue</title>
    <desc>Created with Sketch.</desc>
    <defs></defs>
    <g id="Symbols" stroke="none" stroke-width="1" fill="none" fill-rule="evenodd">
        <g id="Event-info-join" transform="translate(-272.000000, -110.000000)" fill="#000000">
            <g id="icon">
                <g transform="translate(270.000000, 73.000000)">
                    <g id="Venue" transform="translate(2.000000, 37.000000)">
                        <g id="图层_1">
                            <g id="Group">
                                <path d="M0.00559496074,8.21742922 C-0.00559496074,7.70236322 0.106304254,7.01718367 0.318912762,6.34618025 C0.68258521,5.19791383 1.30922081,4.16305644 2.18762965,3.2368827 C3.24507723,2.12169392 4.54870308,1.27585158 6.09291225,0.699355679 C6.77549746,0.444185363 7.48605747,0.269346444 8.22459229,0.155937415 C8.95753214,0.0425283859 9.69606696,-0.0141761286 10.4346018,0.0330776334 C11.0052878,0.0708806431 11.5703788,0.151212039 12.1298749,0.245719563 C12.9859039,0.392206225 13.7859833,0.666278045 14.5468979,1.01595588 C15.8952835,1.63498017 17.0198706,2.46664638 17.9262542,3.51095452 C18.4745604,4.13942956 18.9109673,4.81515835 19.2298801,5.54759167 C19.5040331,6.16661595 19.6886668,6.80926711 19.7781862,7.46609441 C19.8733005,8.15599933 19.8677056,8.84117888 19.7558064,9.52635843 C19.5879575,10.5328636 19.2186901,11.4826642 18.6312193,12.3710349 C17.5402019,14.0343673 15.9792079,15.2724159 13.9314522,16.0710045 C13.4558806,16.1371597 13.394336,16.4679361 13.2768418,16.7703602 C12.969119,17.559498 12.6558012,18.3439104 12.3480784,19.1283229 C12.0795202,19.8087771 11.8109621,20.4939566 11.542404,21.1744108 C11.257061,21.9068441 10.966123,22.634552 10.6807801,23.3669853 C10.6304254,23.4992959 10.5800708,23.626881 10.5297161,23.7591916 C10.5017413,23.839523 10.4569816,23.8820513 10.3394874,23.877326 C10.0597394,23.8678752 9.77999137,23.8726006 9.50024334,23.877326 C9.39393908,23.8820513 9.34358444,23.8442483 9.31560963,23.7686423 C9.12538097,23.2819286 8.9351523,22.7904894 8.73932868,22.3037757 C8.47077056,21.6233215 8.20221244,20.9475927 7.93365433,20.2718639 C7.66509621,19.5866844 7.39094314,18.9015048 7.12238502,18.2163253 C6.87620675,17.5878502 6.63002848,16.9546498 6.37266028,16.3261748 C6.35028044,16.2647449 6.26635603,16.203315 6.19362154,16.1796881 C3.65910432,15.2629651 1.86312193,13.7224925 0.760914661,11.5960732 C0.257368194,10.6037442 -0.0111899215,9.43185091 0.00559496074,8.21742922 L0.00559496074,8.21742922 Z M9.90867547,22.0675069 C9.92546035,22.0675069 9.94224523,22.0675069 9.95343516,22.0627815 C10.0149797,21.9068441 10.0821193,21.7556321 10.1436638,21.5996946 C10.5241212,20.6309925 10.9045785,19.6622904 11.2850358,18.6935883 C11.6710881,17.7201608 12.0515454,16.7467333 12.4431927,15.7780312 C12.5271171,15.57484 12.7173458,15.4330787 12.9411442,15.3385712 C13.3495763,15.173183 13.7859833,15.0455978 14.1832255,14.8565828 C16.8520217,13.5712805 18.3402813,11.6244255 18.6368142,9.04909544 C18.7543084,8.0236888 18.6088394,7.00773291 18.2171922,6.02485466 C17.8311399,5.04670179 17.238074,4.17250719 16.4156148,3.416447 C14.7818863,1.91850274 12.7453206,1.13881567 10.3506774,1.03013201 C8.97991199,0.968702122 7.65950125,1.1718933 6.40063509,1.63498017 C4.98511002,2.15477155 3.81016826,2.93445862 2.8925947,3.97876677 C1.76800759,5.27351985 1.20291656,6.72893572 1.18613168,8.33556363 C1.16934679,9.54053456 1.46587971,10.688801 2.11489516,11.7614614 C3.16115282,13.4767729 4.77250151,14.658117 6.90418155,15.3385712 C7.12797998,15.4094518 7.31820865,15.5653892 7.3965381,15.7496789 C7.69866598,16.4726615 7.97281905,17.2003694 8.25816205,17.9280773 C8.76170852,19.2039289 9.26525498,20.4750551 9.76880145,21.7509067 C9.81356114,21.8595903 9.86391578,21.9635486 9.90867547,22.0675069 L9.90867547,22.0675069 Z" id="Shape"></path>
                                <path d="M12.7509155,14.0390927 C12.6110415,13.7508448 12.4767624,13.4767729 12.3480784,13.1979757 C12.3089136,13.112919 12.392838,13.0987428 12.4487876,13.075116 C12.7285357,12.9475308 13.0306636,12.8388472 13.2936267,12.6876351 C14.4685685,12.0071809 15.3134075,11.1093595 15.7386246,9.95636767 C16.0295625,9.17668059 16.0799172,8.38281739 15.9288532,7.57477806 C15.67708,6.22804584 14.9217603,5.13175856 13.6349193,4.30481772 C13.0138787,3.90788612 12.3256985,3.63853968 11.5703788,3.47315151 C10.7311347,3.28886184 9.88629563,3.2368827 9.03586159,3.35029173 C6.87620675,3.63853968 5.30402278,4.60251643 4.39204418,6.29420111 C3.9052826,7.20147334 3.76540858,8.16072471 3.93885236,9.14360296 C4.25776512,10.9770489 5.45508672,12.271802 7.41332298,13.0798413 C7.51962723,13.1223697 7.54760204,13.1601727 7.49724739,13.2594056 C7.37975322,13.4814983 7.27344896,13.7083164 7.17273967,13.9351344 C7.12797998,14.0438181 7.06084045,14.0485435 6.9545362,14.0060151 C5.77399948,13.5429282 4.79488135,12.8813755 4.04515661,11.9835541 C3.48006558,11.3030999 3.08841833,10.5564904 2.87021486,9.74845111 C2.65760635,8.94986253 2.62403659,8.15127396 2.81426525,7.34796 C3.25067219,5.4814364 4.47037363,4.07799967 6.39504013,3.1187483 C7.7098559,2.461921 9.14776081,2.19729994 10.6751851,2.3437866 C12.6725861,2.53280165 14.2895297,3.3172141 15.5651808,4.61196718 C16.1526517,5.20736458 16.5834636,5.88309338 16.8576167,6.62025207 C17.1877194,7.49917204 17.2828337,8.39699352 17.1093899,9.3137165 C16.7625024,11.090458 15.7274346,12.4986201 13.965022,13.514576 C13.6349193,13.7083164 13.260057,13.8500777 12.9075744,14.0107405 C12.8628147,14.0154658 12.8124601,14.0201912 12.7509155,14.0390927 L12.7509155,14.0390927 Z" id="Shape"></path>
                            </g>
                        </g>
                    </g>
                </g>
            </g>
        </g>
    </g>
</svg>