<?xml version="1.0" encoding="UTF-8" standalone="no"?>
<svg width="20px" height="24px" viewBox="0 0 20 24" version="1.1" xmlns="http://www.w3.org/2000/svg" xmlns:xlink="http://www.w3.org/1999/xlink">
    <!-- Generator: Sketch 3.7.1 (28215) - http://www.bohemiancoding.com/sketch -->
    <title>Speaker</title>
    <desc>Created with Sketch.</desc>
    <defs></defs>
    <g id="Symbols" stroke="none" stroke-width="1" fill="none" fill-rule="evenodd">
        <g id="Event-info-join" transform="translate(-272.000000, -184.000000)" fill="#000000">
            <g id="icon">
                <g transform="translate(270.000000, 73.000000)">
                    <g id="Speaker" transform="translate(2.000000, 111.000000)">
                        <g id="图层_1">
                            <g id="Group">
                                <path d="M4.17518248,7.39223301 C4.17518248,6.44271845 4.16788321,5.49902913 4.17518248,4.54951456 C4.19708029,2.54563107 5.79562044,0.838834951 8.28467153,0.221359223 C10.9416058,-0.431067961 13.7956204,0.436893204 15.189781,2.32427184 C15.7007299,3.01747573 15.9416058,3.7631068 15.9416058,4.54951456 C15.9489051,6.44854369 15.9854015,8.35339806 15.9343066,10.2524272 C15.8832117,12.1165049 14.7591241,13.5203883 12.5474453,14.3417476 C9.44525547,15.4951456 5.67153285,14.2776699 4.52554745,11.7902913 C4.2919708,11.2834951 4.17518248,10.7592233 4.16788321,10.223301 C4.17518248,9.28543689 4.17518248,8.34174757 4.17518248,7.39223301 L4.17518248,7.39223301 Z M14.3357664,7.41553398 C14.3357664,6.4776699 14.3430657,5.53980583 14.3284672,4.60194175 C14.3211679,4.31650485 14.2846715,4.01941748 14.2043796,3.73980583 C13.6715328,1.80582524 10.7591241,0.681553398 8.39416058,1.49708738 C6.71532847,2.07961165 5.81021898,3.08737864 5.79562044,4.50873786 C5.76642336,6.42524272 5.78832117,8.34174757 5.79562044,10.2640777 C5.79562044,10.5262136 5.83941606,10.7941748 5.91240876,11.0563107 C6.41605839,12.8621359 9.01459854,13.9980583 11.2992701,13.438835 C13.189781,12.9728155 14.379562,11.6446602 14.3430657,10.2407767 C14.3138686,9.29708738 14.3357664,8.35339806 14.3357664,7.41553398 L14.3357664,7.41553398 Z" id="Shape"></path>
                                <path d="M10.0291971,23.9825243 C8.57664234,23.9825243 7.13138686,23.9708738 5.67883212,23.9883495 C5.10218978,23.9941748 4.74452555,23.7087379 4.73722628,23.3708738 C4.72992701,23.0737864 5.12408759,22.6893204 5.67883212,22.7009709 C6.71532847,22.7242718 7.75182482,22.7067961 8.78832117,22.7067961 C9.19708029,22.7067961 9.2189781,22.6893204 9.21167883,22.3747573 C9.19708029,21.0058252 9.17518248,19.6368932 9.16058394,18.2679612 C9.15328467,17.8834951 9.16058394,17.8776699 8.67153285,17.831068 C6.74452555,17.6330097 5.03649635,17.0504854 3.5620438,16.0893204 C1.9270073,15.023301 0.810218978,13.7009709 0.350364964,12.0932039 C0.167883212,11.4640777 0.109489051,10.8174757 0.0656934307,10.1708738 C0.0291970803,9.70485437 0.503649635,9.44854369 1.06569343,9.55339806 C1.40875912,9.61747573 1.59124088,9.82135922 1.62773723,10.1242718 C1.68613139,10.6252427 1.71532847,11.1262136 1.84671533,11.615534 C2.2919708,13.2873786 3.47445255,14.6038835 5.31386861,15.5592233 C7.13138686,16.5029126 9.1459854,16.8699029 11.3211679,16.5728155 C14.6715328,16.1126214 16.8759124,14.6038835 17.9927007,12.1631068 C18.2846715,11.5281553 18.3722628,10.8524272 18.3868613,10.1825243 C18.3941606,9.82135922 18.7080292,9.57087379 19.1459854,9.56504854 C19.6058394,9.55339806 19.9489051,9.8038835 19.9562044,10.1941748 C19.9635036,10.5553398 19.9562044,10.9281553 19.8832117,11.2834951 C19.4817518,13.3456311 18.2189781,15.0291262 16.0656934,16.3165049 C14.7080292,17.1262136 13.1678832,17.6213592 11.4525547,17.8252427 C10.620438,17.9242718 10.7664234,17.8194175 10.7664234,18.4194175 C10.7664234,19.7417476 10.7810219,21.0582524 10.7883212,22.3805825 C10.7883212,22.6951456 10.810219,22.7126214 11.2189781,22.7126214 L14.4890511,22.7126214 C14.8613139,22.7126214 15.2627737,22.9747573 15.3284672,23.2427184 C15.4014599,23.5514563 15.2262774,23.8194175 14.8540146,23.9359223 C14.7226277,23.976699 14.5620438,23.9825243 14.4233577,23.9825243 L10.0291971,23.9825243 L10.0291971,23.9825243 L10.0291971,23.9825243 Z" id="Shape"></path>
                            </g>
                        </g>
                    </g>
                </g>
            </g>
        </g>
    </g>
</svg>