<?xml version="1.0" encoding="UTF-8" standalone="no"?>
<svg width="26px" height="25px" viewBox="0 0 26 25" version="1.1" xmlns="http://www.w3.org/2000/svg" xmlns:xlink="http://www.w3.org/1999/xlink">
    <!-- Generator: Sketch 3.7.1 (28215) - http://www.bohemiancoding.com/sketch -->
    <title>Time</title>
    <desc>Created with Sketch.</desc>
    <defs></defs>
    <g id="Symbols" stroke="none" stroke-width="1" fill="none" fill-rule="evenodd">
        <g id="Event-info-join" transform="translate(-269.000000, -72.000000)" stroke="#000000">
            <g id="icon">
                <g transform="translate(270.000000, 73.000000)">
                    <g id="Time">
                        <g id="图层_1">
                            <g id="Group">
                                <ellipse id="Oval" stroke-width="1.259712" cx="12" cy="11.9055118" rx="11.4285714" ry="11.3385827"></ellipse>
                                <path d="M12.1699732,11.7165354 L7.49130718,11.7165354 C7.35319157,11.7165354 7.23809524,11.8276465 7.23809524,11.9609799 L7.23809524,11.972091 C7.23809524,12.1054243 7.35319157,12.2165354 7.49130718,12.2165354 L12.1699732,12.2165354 C12.3080888,12.2165354 12.4231851,12.1054243 12.4231851,11.972091 L12.4231851,11.9609799 C12.4231851,11.8276465 12.3080888,11.7165354 12.1699732,11.7165354 L12.1699732,11.7165354 Z" id="Shape" stroke-width="0.839808"></path>
                                <path d="M11.8095238,4.40193482 L11.8095238,11.9311335 C11.8095238,12.0669415 11.9246201,12.175588 12.0684906,12.175588 L12.0742454,12.175588 C12.2181158,12.175588 12.3332121,12.0669415 12.3332121,11.9311335 L12.3332121,4.40193482 C12.3332121,4.26612676 12.2181158,4.15748031 12.0742454,4.15748031 L12.0684906,4.15748031 C11.9246201,4.15748031 11.8095238,4.26612676 11.8095238,4.40193482 L11.8095238,4.40193482 Z" id="Shape" stroke-width="0.839808"></path>
                                <path d="M11.6190476,0 L11.6190476,2.6618379" id="Shape" stroke-width="1.04976"></path>
                                <path d="M11.6190476,21.1653543 L11.6190476,23.8271922" id="Shape" stroke-width="1.04976"></path>
                                <path d="M0,11.5275591 L2.81986021,11.5275591" id="Shape" stroke-width="1.04976"></path>
                                <path d="M21.1428571,11.5275591 L23.9627174,11.5275591" id="Shape" stroke-width="1.04976"></path>
                            </g>
                        </g>
                    </g>
                </g>
            </g>
        </g>
    </g>
</svg>