<?xml version="1.0" encoding="utf-8"?>
<!-- Generator: Adobe Illustrator 19.0.1, SVG Export Plug-In . SVG Version: 6.00 Build 0)  -->
<svg version="1.1" id="Layer_1" xmlns="http://www.w3.org/2000/svg" xmlns:xlink="http://www.w3.org/1999/xlink" x="0px" y="0px"
	 viewBox="0 0 44 44" style="enable-background:new 0 0 44 44;" xml:space="preserve">
<style type="text/css">
	.st0{fill:#010101;}
</style>
<path class="st0" d="M-18.1,41.1H-56c-1.1,0-2-0.9-2-2V23.8c0-0.5,0.2-1,0.6-1.4l18.2-18.2c0.7-0.7,1.9-0.8,2.7-0.1l19.7,16.7
	c0.4,0.4,0.7,0.9,0.7,1.5v16.7C-16.1,40.2-17,41.1-18.1,41.1z M-54,37.1h33.9V23.3L-37.7,8.3L-54,24.6V37.1z"/>
<path class="st0" d="M-85.8,41.1c-10.8,0-19.5-8.8-19.5-19.5S-96.6,2-85.8,2c10.8,0,19.5,8.8,19.5,19.5S-75,41.1-85.8,41.1z
	 M-85.8,6c-8.6,0-15.5,7-15.5,15.5s7,15.5,15.5,15.5s15.5-7,15.5-15.5S-77.3,6-85.8,6z"/>
<circle class="st0" cx="-85.8" cy="21.5" r="3.6"/>
<path class="st0" d="M39.7,41.2H4.3c-1.1,0-2-0.9-2-2V6.2c0-1.1,0.9-2,2-2h22.3c0.6,0,1.1,0.2,1.5,0.6l13.1,13.9
	c0.3,0.4,0.5,0.9,0.5,1.4v19C41.7,40.3,40.8,41.2,39.7,41.2z M6.3,37.2h31.4V21L25.8,8.2H6.3V37.2z"/>
</svg>
